<svg width="689" height="372" viewBox="0 0 689 372" fill="none" xmlns="http://www.w3.org/2000/svg">
<path d="M417.631 255.727C417.976 291.729 410.126 319.251 394.092 338.303C378.047 357.354 356.086 367.006 328.209 367.267C300.197 367.539 277.933 358.306 261.407 339.568C244.882 320.84 236.447 293.475 236.091 257.463L235.485 194.137C235.14 158.261 242.99 130.739 259.024 111.562C275.058 92.3949 297.082 82.6702 325.095 82.3984C352.971 82.1265 375.183 91.4224 391.709 110.286C408.234 129.15 416.68 156.515 417.025 192.391L417.631 255.716V255.727ZM370.762 185.751C370.542 163.081 366.581 146.33 358.877 135.518C351.174 124.695 340.031 119.362 325.46 119.498C310.89 119.634 299.883 125.187 292.451 136.156C285.02 147.125 281.403 163.939 281.623 186.609L282.365 263.548C282.584 286.354 286.577 303.189 294.354 314.075C302.12 324.96 313.294 330.324 327.875 330.188C342.446 330.052 353.421 324.5 360.79 313.531C368.159 302.562 371.734 285.622 371.514 262.691L370.772 185.751H370.762Z" fill="#DE5C05"/>
<path d="M444.243 255.477C444.588 291.479 436.738 319.001 420.704 338.053C404.659 357.104 382.698 366.756 354.822 367.017C326.809 367.289 304.545 358.056 288.019 339.318C271.494 320.59 263.059 293.225 262.703 257.213L262.097 193.887C261.752 158.011 269.602 130.489 285.636 111.312C301.67 92.1449 323.694 82.4202 351.707 82.1484C379.584 81.8765 401.795 91.1724 418.321 110.036C434.846 128.9 443.292 156.265 443.637 192.141L444.243 255.466V255.477ZM397.374 185.501C397.154 162.831 393.193 146.08 385.489 135.268C377.786 124.445 366.643 119.112 352.072 119.248C337.502 119.384 326.495 124.937 319.063 135.906C311.632 146.875 308.015 163.689 308.235 186.359L308.977 263.298C309.196 286.104 313.189 302.939 320.966 313.825C328.732 324.71 339.906 330.074 354.487 329.938C369.058 329.802 380.033 324.25 387.402 313.281C394.771 302.312 398.346 285.372 398.126 262.441L397.384 185.501H397.374Z" fill="#FF6600"/>
<path d="M262.296 197.661C262.348 197.797 256.171 200.254 248.498 203.14C240.826 206.026 234.555 208.254 234.503 208.107C234.45 207.971 240.628 205.514 248.31 202.628C255.982 199.742 262.254 197.515 262.306 197.661H262.296Z" fill="#E8505B"/>
<path d="M263.832 222.685C263.885 222.82 257.707 225.278 250.035 228.164C242.352 231.05 236.091 233.277 236.039 233.131C235.987 232.995 242.164 230.537 249.847 227.651C257.519 224.765 263.79 222.538 263.843 222.685H263.832Z" fill="#E8505B"/>
<path d="M265.369 247.706C265.421 247.842 259.244 250.299 251.571 253.185C243.889 256.071 237.628 258.299 237.576 258.152C237.523 258.016 243.701 255.559 251.383 252.673C259.056 249.787 265.327 247.56 265.379 247.706H265.369Z" fill="#E8505B"/>
<path d="M266.905 272.729C266.958 272.865 260.78 275.323 253.108 278.209C245.425 281.095 239.164 283.322 239.112 283.176C239.06 283.04 245.237 280.582 252.92 277.696C260.592 274.81 266.864 272.583 266.916 272.729H266.905Z" fill="#E8505B"/>
<path d="M268.442 297.751C268.442 297.751 268.118 297.95 267.48 298.222C266.853 298.494 265.933 298.87 264.805 299.32C262.536 300.229 259.38 301.442 255.889 302.76C252.397 304.078 249.22 305.238 246.91 306.043C245.76 306.451 244.819 306.775 244.171 306.984C243.523 307.194 243.157 307.298 243.136 307.256C243.126 307.225 243.46 307.058 244.098 306.786C244.725 306.514 245.645 306.137 246.774 305.688C249.042 304.778 252.199 303.565 255.69 302.248C259.181 300.93 262.359 299.769 264.658 298.964C265.808 298.556 266.749 298.232 267.397 298.023C268.045 297.814 268.411 297.709 268.432 297.751H268.442Z" fill="#E8505B"/>
<path d="M275.581 320.641C275.612 320.714 274.4 321.237 272.414 322.032C270.438 322.827 267.689 323.893 264.637 325.043C261.585 326.194 258.826 327.198 256.808 327.898C254.791 328.599 253.537 329.007 253.505 328.933C253.474 328.86 254.686 328.337 256.672 327.543C258.648 326.748 261.397 325.681 264.449 324.531C267.491 323.381 270.261 322.377 272.278 321.676C274.295 320.976 275.55 320.568 275.581 320.641Z" fill="#E8505B"/>
<path d="M290.873 341.639C290.904 341.712 289.828 342.182 288.061 342.904C286.305 343.615 283.849 344.566 281.142 345.591C278.424 346.616 275.957 347.505 274.159 348.132C272.362 348.76 271.243 349.105 271.212 349.031C271.18 348.958 272.257 348.488 274.024 347.766C275.78 347.055 278.236 346.104 280.943 345.079C283.661 344.054 286.128 343.165 287.925 342.538C289.723 341.91 290.842 341.565 290.873 341.639Z" fill="#E8505B"/>
<path d="M316.283 355.41C316.314 355.483 315.238 355.954 313.471 356.675C311.705 357.397 309.259 358.338 306.552 359.363C303.834 360.387 301.367 361.276 299.57 361.904C297.772 362.531 296.653 362.876 296.622 362.803C296.591 362.73 297.667 362.259 299.434 361.538C301.19 360.827 303.646 359.875 306.353 358.85C309.071 357.826 311.538 356.937 313.335 356.309C315.133 355.682 316.252 355.337 316.283 355.41Z" fill="#E8505B"/>
<path d="M392.921 302.018C392.984 302.153 385.05 305.855 375.204 310.289C365.358 314.722 357.32 318.194 357.257 318.058C357.194 317.922 365.128 314.22 374.974 309.787C384.82 305.353 392.858 301.882 392.921 302.018Z" fill="#E8505B"/>
<path d="M398.126 280.571C398.189 280.707 391.635 283.792 383.503 287.452C375.361 291.111 368.713 293.966 368.65 293.83C368.588 293.694 375.141 290.609 383.284 286.95C391.426 283.29 398.074 280.435 398.137 280.571H398.126Z" fill="#E8505B"/>
<path d="M400.52 256.489C400.583 256.625 394.029 259.71 385.897 263.369C377.755 267.029 371.107 269.884 371.044 269.748C370.981 269.612 377.535 266.527 385.678 262.868C393.82 259.208 400.468 256.353 400.531 256.489H400.52Z" fill="#E8505B"/>
<path d="M402.914 232.407C402.976 232.543 396.423 235.628 388.291 239.287C380.148 242.947 373.5 245.802 373.438 245.666C373.375 245.53 379.929 242.445 388.071 238.786C396.214 235.126 402.861 232.271 402.924 232.407H402.914Z" fill="#E8505B"/>
<path d="M405.318 208.317C405.38 208.453 398.827 211.538 390.695 215.198C382.552 218.857 375.904 221.712 375.842 221.576C375.779 221.44 382.333 218.355 390.475 214.696C398.618 211.036 405.265 208.181 405.328 208.317H405.318Z" fill="#E8505B"/>
<path d="M400.52 186.87C400.583 187.006 394.029 190.091 385.897 193.75C377.755 197.41 371.107 200.265 371.044 200.129C370.981 199.993 377.535 196.908 385.678 193.248C393.82 189.589 400.468 186.734 400.531 186.87H400.52Z" fill="#E8505B"/>
<path d="M400.52 163.782C400.583 163.918 394.029 167.003 385.897 170.662C377.755 174.322 371.107 177.177 371.044 177.041C370.981 176.905 377.535 173.82 385.678 170.161C393.82 166.501 400.468 163.646 400.531 163.782H400.52Z" fill="#E8505B"/>
<path d="M398.126 142.042C398.189 142.178 391.635 145.262 383.503 148.922C375.361 152.582 368.713 155.437 368.65 155.301C368.588 155.165 375.141 152.08 383.284 148.42C391.426 144.76 398.074 141.906 398.137 142.042H398.126Z" fill="#E8505B"/>
<path d="M377.483 126.9C377.545 127.036 373.584 128.95 368.629 131.177C363.675 133.404 359.609 135.098 359.557 134.962C359.494 134.826 363.455 132.913 368.41 130.686C373.364 128.458 377.42 126.764 377.483 126.9Z" fill="#E8505B"/>
<path d="M366.445 117.615C366.508 117.751 362.546 119.665 357.592 121.892C352.637 124.119 348.571 125.813 348.519 125.677C348.456 125.541 352.418 123.628 357.372 121.4C362.327 119.173 366.382 117.479 366.445 117.615Z" fill="#E8505B"/>
<path d="M263.477 167.325C263.529 167.461 257.352 169.918 249.68 172.804C241.997 175.69 235.736 177.918 235.684 177.771C235.632 177.625 241.809 175.178 249.492 172.292C257.164 169.406 263.435 167.179 263.488 167.325H263.477Z" fill="#E8505B"/>
<path d="M271.17 136.123C271.222 136.259 264.522 138.915 256.202 142.042C247.882 145.168 241.098 147.594 241.046 147.448C240.994 147.312 247.694 144.656 256.014 141.53C264.334 138.403 271.118 135.977 271.17 136.123Z" fill="#E8505B"/>
<path d="M291.27 105.234C291.323 105.369 282.825 108.695 272.288 112.658C261.752 116.621 253.171 119.716 253.119 119.569C253.066 119.434 261.564 116.108 272.1 112.145C282.637 108.182 291.218 105.087 291.27 105.234Z" fill="#E8505B"/>
<path d="M439.738 302.363C439.738 302.363 439.581 302.321 439.299 302.216C438.996 302.101 438.578 301.934 438.045 301.725C437.491 301.516 436.769 301.369 435.933 301.129C435.076 301.014 434.093 300.773 432.975 300.773C428.512 300.48 421.822 302.112 415.352 306.953C412.07 309.295 409.007 312.506 406.018 316.186C403.018 319.856 400.081 324.008 396.747 328.201C393.412 332.373 389.576 336.608 384.705 339.881C379.866 343.164 374.148 345.538 368.044 346.636C361.929 347.765 355.752 347.441 350.076 346.04C344.379 344.67 339.185 342.432 334.335 340.195C329.485 337.946 324.948 335.646 320.6 333.764C316.262 331.84 312.06 330.449 308.141 329.518C304.21 328.619 300.573 328.232 297.374 328.274C294.176 328.305 291.448 328.797 289.274 329.372C287.121 330.031 285.5 330.71 284.455 331.265C283.943 331.537 283.556 331.746 283.264 331.892C282.992 332.028 282.856 332.101 282.845 332.091C282.845 332.091 282.971 331.997 283.232 331.84C283.514 331.672 283.912 331.453 284.403 331.16C285.438 330.575 287.058 329.853 289.211 329.163C291.396 328.546 294.145 328.023 297.364 327.96C300.583 327.887 304.263 328.253 308.224 329.131C312.175 330.041 316.419 331.421 320.778 333.335C325.157 335.207 329.694 337.497 334.544 339.724C339.394 341.941 344.557 344.158 350.202 345.507C355.815 346.887 361.908 347.2 367.95 346.092C373.981 345.005 379.625 342.662 384.413 339.431C389.231 336.211 393.036 332.028 396.37 327.877C399.705 323.715 402.652 319.574 405.684 315.893C408.704 312.213 411.819 308.982 415.143 306.639C421.697 301.787 428.491 300.198 432.996 300.554C434.135 300.575 435.118 300.825 435.985 300.961C436.822 301.212 437.543 301.39 438.097 301.61C438.63 301.84 439.038 302.018 439.341 302.153C439.623 302.279 439.759 302.342 439.759 302.352L439.738 302.363Z" fill="white"/>
<path d="M446.334 232.566C446.334 232.628 445.591 232.722 444.306 233.151C443.02 233.59 441.233 234.437 439.257 235.849C437.261 237.24 435.097 239.185 432.557 241.192C429.996 243.189 426.965 245.113 423.578 246.724C416.805 249.986 410.001 251.251 405.119 251.492C403.896 251.597 402.788 251.555 401.816 251.576C400.844 251.534 400.008 251.523 399.318 251.471C398.691 251.408 398.168 251.356 397.75 251.314C397.395 251.272 397.207 251.241 397.207 251.22C397.207 251.199 397.395 251.199 397.761 251.199C398.179 251.21 398.701 251.231 399.328 251.251C400.039 251.251 400.865 251.252 401.816 251.272C402.778 251.22 403.886 251.231 405.098 251.105C409.938 250.77 416.648 249.453 423.359 246.222C426.704 244.632 429.714 242.74 432.264 240.784C434.804 238.808 437.01 236.884 439.059 235.514C441.086 234.124 442.936 233.308 444.264 232.932C444.933 232.754 445.445 232.639 445.811 232.597C446.166 232.545 446.354 232.534 446.365 232.545L446.334 232.566Z" fill="white"/>
<path d="M309.792 256.793C309.792 256.793 309.594 256.793 309.217 256.709C308.851 256.625 308.287 256.542 307.597 256.343C306.207 255.935 304.231 255.203 301.995 253.886C299.758 252.579 297.291 250.717 294.678 248.542C292.054 246.378 289.253 243.889 286.044 241.672C282.825 239.466 279.417 237.887 276.125 237.124C272.842 236.308 269.78 236.13 267.229 236.277C264.679 236.402 262.63 236.831 261.251 237.187C259.86 237.542 259.108 237.814 259.097 237.762C259.097 237.741 259.275 237.668 259.631 237.521C259.986 237.385 260.509 237.176 261.198 236.977C262.578 236.559 264.627 236.068 267.209 235.879C269.79 235.691 272.905 235.817 276.25 236.622C279.605 237.375 283.096 238.975 286.358 241.212C289.608 243.461 292.41 245.97 295.012 248.145C297.605 250.341 300.019 252.223 302.204 253.551C304.388 254.89 306.311 255.674 307.67 256.134C309.04 256.542 309.813 256.73 309.803 256.782L309.792 256.793Z" fill="white"/>
<path d="M309.98 157.947C309.98 157.947 309.374 158.208 308.235 158.584C307.67 158.783 306.97 159.003 306.144 159.201C305.318 159.411 304.388 159.682 303.343 159.871C302.298 160.09 301.148 160.32 299.894 160.477C298.65 160.686 297.312 160.78 295.901 160.906C293.079 161.084 289.953 161.084 286.703 160.791C283.452 160.467 280.379 159.881 277.64 159.18C276.281 158.794 274.975 158.448 273.794 158.009C272.592 157.622 271.505 157.183 270.522 156.775C269.519 156.399 268.661 155.949 267.888 155.594C267.114 155.238 266.466 154.893 265.954 154.6C264.909 154.015 264.345 153.68 264.365 153.649C264.386 153.618 264.982 153.889 266.059 154.412C266.592 154.684 267.24 154.998 268.024 155.322C268.797 155.657 269.665 156.075 270.668 156.43C271.661 156.817 272.748 157.236 273.94 157.591C275.121 158.009 276.417 158.333 277.766 158.699C280.494 159.369 283.535 159.933 286.755 160.247C289.985 160.54 293.068 160.54 295.869 160.404C297.27 160.289 298.597 160.216 299.831 160.027C301.075 159.891 302.214 159.682 303.259 159.494C304.315 159.327 305.235 159.086 306.061 158.898C306.886 158.731 307.587 158.532 308.162 158.375C309.311 158.062 309.949 157.905 309.959 157.936L309.98 157.947Z" fill="white"/>
<path d="M440.397 157.685C440.397 157.685 440.229 157.623 439.947 157.476C439.613 157.288 439.215 157.058 438.735 156.776C438.222 156.462 437.574 156.085 436.79 155.719C436.017 155.343 435.16 154.852 434.146 154.475C433.644 154.266 433.122 154.046 432.578 153.827C432.034 153.607 431.439 153.44 430.832 153.231C429.641 152.792 428.303 152.488 426.923 152.122C424.122 151.516 420.997 151.087 417.694 151.035C414.391 151.035 411.255 151.401 408.443 151.955C407.053 152.29 405.715 152.572 404.513 152.99C403.907 153.189 403.311 153.346 402.757 153.555C402.213 153.774 401.68 153.984 401.179 154.182C400.154 154.548 399.297 155.019 398.513 155.385C397.729 155.74 397.081 156.096 396.559 156.41C396.078 156.681 395.67 156.901 395.336 157.089C395.053 157.236 394.897 157.309 394.886 157.298C394.886 157.288 395.012 157.183 395.273 156.995C395.597 156.786 395.984 156.535 396.454 156.221C396.966 155.887 397.604 155.489 398.377 155.102C399.151 154.716 400.008 154.214 401.032 153.816C401.544 153.607 402.067 153.388 402.621 153.158C403.175 152.928 403.771 152.76 404.388 152.551C405.6 152.101 406.948 151.809 408.349 151.453C411.182 150.868 414.359 150.47 417.704 150.481C421.049 150.533 424.216 150.983 427.038 151.62C428.439 151.997 429.777 152.321 430.979 152.781C431.585 153.001 432.181 153.178 432.724 153.419C433.268 153.659 433.791 153.89 434.292 154.109C435.306 154.517 436.163 155.04 436.926 155.437C437.7 155.834 438.327 156.232 438.829 156.587C439.289 156.901 439.675 157.162 439.989 157.382C440.25 157.57 440.386 157.675 440.376 157.685H440.397Z" fill="white"/>
<path d="M376.5 86.6651C376.5 86.6651 376.249 86.8324 375.748 87.1147C375.194 87.4179 374.462 87.8153 373.532 88.3172C371.598 89.3524 368.797 90.8268 365.285 92.573C358.281 96.0342 348.435 100.771 336.791 103.72C330.969 105.152 325.272 105.926 320.078 106.041C314.883 106.156 310.2 105.686 306.353 104.86C302.507 104.044 299.486 103.009 297.469 102.141C296.444 101.743 295.702 101.325 295.169 101.095C294.647 100.844 294.385 100.698 294.396 100.687C294.396 100.666 294.688 100.781 295.221 101.001C295.765 101.21 296.518 101.597 297.552 101.953C299.58 102.758 302.601 103.73 306.427 104.483C310.252 105.257 314.904 105.686 320.067 105.539C325.22 105.393 330.875 104.619 336.655 103.186C348.226 100.259 358.062 95.595 365.107 92.2175C368.577 90.5026 371.41 89.1119 373.417 88.1185C374.368 87.6584 375.121 87.282 375.685 87.0101C376.208 86.7592 376.479 86.6337 376.49 86.6546L376.5 86.6651Z" fill="white"/>
<path d="M166.666 268.85L201.608 270.376L199.988 307.424L165.046 305.897L162.359 367.455L116.4 365.448L119.086 303.89L0.386932 298.703L0.481005 270.491L126.957 88.7559L174.432 90.8263L166.666 268.85ZM46.4512 263.6L120.706 266.842L125.608 154.559L124.49 154.13L120.34 162.13L46.4617 263.6H46.4512Z" fill="#DE5C05"/>
<path d="M195.891 270.125L230.834 271.652L229.214 308.699L194.271 307.173L191.585 368.731L145.625 366.723L148.311 305.165L29.6122 299.979L29.7063 271.767L156.182 90.0312L203.657 92.1017L195.891 270.125ZM75.6765 264.876L149.931 268.117L154.833 155.835L153.715 155.406L149.565 163.405L75.6869 264.876H75.6765Z" fill="#FF6600"/>
<path d="M30.2916 277.131C30.2916 277.131 29.9049 277.392 29.1627 277.769C28.4206 278.145 27.3335 278.668 25.9852 279.306C23.2884 280.571 19.536 282.255 15.355 284.022C11.1739 285.789 7.34832 287.305 4.5575 288.361C3.16731 288.884 2.03844 289.302 1.24405 289.574C0.460107 289.846 0.0106486 289.982 0.000196087 289.94C-0.0102564 289.909 0.397392 289.7 1.17088 289.376C2.03844 289.01 3.1255 288.549 4.42161 288.006C7.27515 286.814 11.0067 285.256 15.1459 283.52C19.2642 281.763 22.9853 280.163 25.8284 278.95C27.114 278.407 28.2011 277.946 29.0687 277.581C29.8422 277.267 30.2707 277.11 30.2916 277.141V277.131Z" fill="#E8505B"/>
<path d="M47.3083 245.824C47.3083 245.824 46.7648 246.148 45.73 246.661C44.6952 247.163 43.2005 247.863 41.3399 248.721C37.6188 250.425 32.4344 252.694 26.675 255.131C20.9157 257.567 15.679 259.7 11.8638 261.185C9.96143 261.927 8.404 262.513 7.32739 262.9C6.25078 263.287 5.64453 263.485 5.63408 263.444C5.62363 263.412 6.19852 263.14 7.25422 262.701C8.39355 262.22 9.89871 261.593 11.7175 260.819C15.5744 259.198 20.738 257.023 26.4555 254.618C32.1626 252.192 37.3261 249.996 41.1727 248.365C42.9914 247.591 44.4966 246.954 45.6359 246.473C46.6916 246.033 47.2769 245.803 47.2978 245.835L47.3083 245.824Z" fill="#E8505B"/>
<path d="M68.0775 217.904C68.0775 217.904 67.5026 218.239 66.426 218.741C65.3494 219.243 63.7815 219.954 61.8373 220.801C57.949 222.505 52.5346 224.774 46.5348 227.211C40.5246 229.647 35.0579 231.78 31.086 233.265C29.1 234.007 27.4799 234.593 26.3614 234.98C25.243 235.367 24.6159 235.565 24.595 235.524C24.5845 235.492 25.1803 235.22 26.2883 234.781C27.4694 234.3 29.0477 233.673 30.9501 232.899C34.9639 231.278 40.3678 229.103 46.3362 226.698C52.2942 224.272 57.6877 222.076 61.691 220.445C63.5933 219.671 65.1612 219.034 66.3424 218.553C67.4399 218.103 68.0566 217.883 68.0775 217.915V217.904Z" fill="#E8505B"/>
<path d="M151.269 250.153C151.269 250.153 150.882 250.404 150.13 250.77C149.388 251.136 148.301 251.637 146.942 252.244C144.245 253.467 140.482 255.088 136.291 256.793C132.099 258.487 128.263 259.94 125.483 260.944C124.093 261.446 122.953 261.843 122.169 262.094C121.385 262.355 120.936 262.481 120.926 262.439C120.915 262.397 121.333 262.209 122.096 261.895C122.964 261.54 124.061 261.101 125.347 260.578C128.211 259.438 131.953 257.932 136.092 256.28C140.221 254.586 143.952 253.06 146.796 251.888C148.092 251.366 149.179 250.926 150.046 250.571C150.82 250.268 151.248 250.121 151.269 250.153Z" fill="#E8505B"/>
<path d="M147.882 307.592C147.882 307.592 147.506 307.843 146.785 308.209C146.064 308.575 145.008 309.077 143.701 309.683C141.088 310.907 137.44 312.527 133.374 314.221C129.308 315.915 125.598 317.369 122.891 318.373C121.542 318.874 120.434 319.272 119.671 319.533C118.908 319.795 118.48 319.92 118.459 319.889C118.448 319.857 118.845 319.659 119.588 319.345C120.434 318.99 121.49 318.55 122.744 318.027C125.525 316.877 129.152 315.382 133.165 313.73C137.158 312.036 140.775 310.509 143.545 309.338C144.789 308.815 145.844 308.376 146.701 308.021C147.454 307.717 147.872 307.571 147.882 307.602V307.592Z" fill="#E8505B"/>
<path d="M147.402 327.73C147.402 327.73 147.025 327.981 146.304 328.347C145.583 328.713 144.527 329.215 143.221 329.822C140.608 331.045 136.96 332.666 132.894 334.36C128.828 336.054 125.117 337.507 122.41 338.511C121.061 339.013 119.953 339.41 119.19 339.672C118.427 339.933 117.999 340.059 117.978 340.027C117.957 339.996 118.365 339.797 119.107 339.484C119.953 339.128 121.009 338.689 122.263 338.166C125.044 337.016 128.671 335.521 132.685 333.868C136.677 332.175 140.294 330.648 143.064 329.477C144.308 328.954 145.363 328.515 146.221 328.159C146.973 327.856 147.391 327.71 147.402 327.741V327.73Z" fill="#E8505B"/>
<path d="M146.921 347.859C146.921 347.859 146.545 348.11 145.823 348.476C145.102 348.842 144.047 349.344 142.74 349.951C140.127 351.174 136.479 352.795 132.413 354.489C128.347 356.183 124.636 357.636 121.929 358.64C120.581 359.142 119.473 359.539 118.71 359.801C117.947 360.062 117.518 360.188 117.497 360.156C117.487 360.125 117.884 359.926 118.626 359.613C119.473 359.257 120.528 358.818 121.783 358.295C124.563 357.145 128.19 355.65 132.204 353.997C136.197 352.303 139.813 350.777 142.583 349.606C143.827 349.083 144.883 348.644 145.74 348.288C146.492 347.985 146.911 347.838 146.921 347.87V347.859Z" fill="#E8505B"/>
<path d="M151.813 228.873C151.813 228.873 151.426 229.124 150.673 229.49C149.931 229.856 148.844 230.358 147.485 230.965C144.789 232.188 141.026 233.809 136.834 235.513C132.643 237.207 128.807 238.661 126.026 239.665C124.636 240.166 123.497 240.564 122.713 240.815C121.929 241.076 121.479 241.202 121.469 241.16C121.459 241.118 121.877 240.93 122.64 240.616C123.507 240.261 124.605 239.821 125.89 239.299C128.754 238.159 132.496 236.653 136.636 235.001C140.764 233.307 144.496 231.78 147.339 230.609C148.635 230.086 149.722 229.647 150.59 229.292C151.363 228.988 151.792 228.842 151.813 228.873Z" fill="#E8505B"/>
<path d="M152.356 207.606C152.356 207.606 151.97 207.857 151.217 208.223C150.475 208.589 149.388 209.091 148.029 209.697C145.332 210.92 141.569 212.541 137.378 214.246C133.186 215.94 129.35 217.393 126.57 218.397C125.18 218.899 124.04 219.296 123.256 219.547C122.473 219.809 122.023 219.934 122.013 219.892C122.002 219.861 122.42 219.662 123.183 219.348C124.051 218.993 125.148 218.554 126.434 218.031C129.298 216.891 133.04 215.385 137.179 213.733C141.308 212.039 145.04 210.513 147.883 209.342C149.179 208.819 150.266 208.38 151.133 208.024C151.907 207.721 152.335 207.574 152.356 207.606Z" fill="#E8505B"/>
<path d="M152.9 186.337C152.9 186.337 152.534 186.577 151.823 186.922C151.112 187.268 150.078 187.749 148.792 188.334C146.221 189.495 142.646 191.053 138.653 192.674C134.66 194.294 131.002 195.664 128.347 196.616C127.019 197.097 125.943 197.463 125.19 197.714C124.438 197.954 124.019 198.08 124.009 198.038C123.999 198.006 124.396 197.818 125.117 197.515C125.953 197.18 126.988 196.752 128.211 196.26C130.949 195.173 134.503 193.74 138.444 192.172C142.364 190.561 145.917 189.097 148.635 187.979C149.858 187.487 150.893 187.058 151.729 186.724C152.461 186.441 152.879 186.295 152.889 186.326L152.9 186.337Z" fill="#E8505B"/>
<path d="M155.304 166.457C155.356 166.593 153.015 167.597 150.067 168.695C147.12 169.782 144.695 170.556 144.642 170.42C144.59 170.284 146.931 169.28 149.879 168.182C152.827 167.095 155.252 166.321 155.304 166.457Z" fill="#E8505B"/>
<path d="M88.8049 188.951C88.8049 188.951 88.23 189.286 87.1534 189.788C86.0768 190.29 84.5089 191.001 82.5648 191.848C78.6764 193.552 73.262 195.821 67.2623 198.258C61.252 200.694 55.7854 202.827 51.8134 204.312C49.8274 205.054 48.2073 205.64 47.0889 206.027C45.9705 206.414 45.3433 206.612 45.3224 206.571C45.3119 206.539 45.9077 206.267 47.0157 205.828C48.1968 205.347 49.7752 204.72 51.6775 203.946C55.6913 202.325 61.0953 200.15 67.0637 197.745C73.0216 195.319 78.4151 193.123 82.4184 191.492C84.3208 190.718 85.8887 190.08 87.0698 189.599C88.1673 189.15 88.784 188.93 88.8049 188.962V188.951Z" fill="#E8505B"/>
<path d="M109.543 160.008C109.543 160.008 108.968 160.342 107.891 160.844C106.814 161.346 105.247 162.057 103.302 162.904C99.4141 164.609 93.9997 166.878 87.9999 169.314C81.9897 171.751 76.523 173.884 72.5511 175.369C70.5651 176.111 68.945 176.697 67.8265 177.083C66.7081 177.47 66.081 177.669 66.0601 177.627C66.0496 177.596 66.6454 177.324 67.7534 176.885C68.9345 176.404 70.5128 175.776 72.4152 175.003C76.429 173.382 81.8329 171.207 87.8013 168.802C93.7593 166.376 99.1528 164.18 103.156 162.549C105.058 161.775 106.626 161.137 107.807 160.656C108.905 160.206 109.522 159.987 109.543 160.018V160.008Z" fill="#E8505B"/>
<path d="M128.702 131.053C128.702 131.053 128.127 131.387 127.051 131.889C125.974 132.391 124.406 133.102 122.462 133.949C118.574 135.654 113.159 137.923 107.159 140.359C101.149 142.795 95.6826 144.929 91.7107 146.413C89.7247 147.156 88.1045 147.741 86.9861 148.128C85.8677 148.515 85.2405 148.714 85.2196 148.672C85.1987 148.63 85.805 148.369 86.913 147.93C88.0941 147.449 89.6724 146.821 91.5748 146.047C95.5885 144.427 100.993 142.252 106.961 139.847C112.919 137.421 118.312 135.225 122.316 133.594C124.218 132.82 125.786 132.182 126.967 131.701C128.065 131.251 128.681 131.032 128.702 131.063V131.053Z" fill="#E8505B"/>
<path d="M148.645 103.217C148.645 103.217 148.071 103.551 146.994 104.053C145.917 104.555 144.349 105.266 142.405 106.113C138.517 107.818 133.103 110.087 127.103 112.523C121.093 114.96 115.626 117.093 111.654 118.578C109.668 119.32 108.048 119.906 106.929 120.292C105.811 120.679 105.184 120.878 105.163 120.836C105.142 120.794 105.748 120.533 106.856 120.094C108.037 119.613 109.616 118.985 111.518 118.212C115.532 116.591 120.936 114.416 126.904 112.011C132.862 109.585 138.256 107.389 142.259 105.758C144.161 104.984 145.729 104.346 146.91 103.865C148.008 103.415 148.625 103.196 148.645 103.227V103.217Z" fill="#E8505B"/>
<path d="M201.556 145.753C201.556 145.753 201.358 146.004 200.95 146.443C200.542 146.883 199.936 147.531 199.058 148.273C197.354 149.789 194.668 151.797 190.936 153.522C187.215 155.237 182.418 156.586 176.972 156.712C174.254 156.764 171.39 156.471 168.516 155.76C165.631 155.081 162.788 153.909 159.966 152.571C154.342 149.831 149.346 146.6 144.464 144.352C139.615 142.052 134.827 140.912 130.782 140.776C126.716 140.63 123.486 141.55 121.448 142.522C120.434 143.024 119.661 143.463 119.18 143.819C118.689 144.153 118.417 144.321 118.406 144.31C118.396 144.3 118.636 144.101 119.117 143.735C119.577 143.348 120.34 142.878 121.354 142.334C123.392 141.288 126.674 140.295 130.793 140.389C134.9 140.483 139.761 141.592 144.684 143.892C149.618 146.14 154.635 149.361 160.206 152.079C162.997 153.407 165.809 154.568 168.641 155.237C171.463 155.938 174.275 156.241 176.961 156.199C182.324 156.105 187.079 154.819 190.769 153.167C194.48 151.515 197.177 149.57 198.912 148.116C199.8 147.405 200.427 146.778 200.866 146.37C201.305 145.962 201.546 145.753 201.556 145.764V145.753Z" fill="white"/>
<path d="M187.006 94.0455C187.006 94.0455 186.546 94.3487 185.679 94.8193C184.811 95.2898 183.515 95.9067 181.885 96.5969C180.254 97.2975 178.278 98.0085 176.031 98.6882C173.784 99.347 171.275 99.943 168.61 100.393C165.944 100.821 163.373 101.041 161.032 101.135C158.69 101.198 156.579 101.156 154.823 101.01C153.057 100.874 151.635 100.706 150.663 100.529C149.691 100.361 149.158 100.257 149.158 100.215C149.158 100.173 149.712 100.215 150.684 100.319C151.666 100.434 153.088 100.539 154.833 100.623C156.589 100.717 158.68 100.727 161 100.623C163.321 100.497 165.861 100.267 168.505 99.8384C171.15 99.3992 173.638 98.8137 175.874 98.1863C178.101 97.538 180.087 96.8688 181.717 96.2204C183.358 95.5826 184.665 95.0284 185.564 94.6101C186.463 94.2023 186.964 93.9932 186.985 94.0246L187.006 94.0455Z" fill="white"/>
<path d="M112.793 210.177C112.793 210.177 112.438 209.821 111.853 209.121C111.205 208.347 110.368 207.354 109.375 206.183C107.264 203.725 104.243 200.4 100.627 197.033C98.8183 195.35 96.9787 193.886 95.139 192.809C93.3098 191.732 91.4911 191.083 89.9128 190.78C86.7352 190.153 84.7388 190.874 84.7283 190.749C84.7283 190.728 84.8433 190.686 85.0732 190.613C85.3032 190.54 85.6481 190.456 86.0976 190.372C86.9965 190.215 88.3449 190.132 89.9755 190.404C91.5956 190.665 93.4875 191.292 95.3794 192.38C97.2713 193.446 99.1632 194.942 100.982 196.636C104.619 200.034 107.609 203.412 109.658 205.942C110.682 207.207 111.476 208.263 112.009 209.006C112.542 209.748 112.814 210.167 112.783 210.198L112.793 210.177Z" fill="white"/>
<path d="M196.173 241.777C196.173 241.777 196.048 241.902 195.766 242.091C195.483 242.279 195.086 242.572 194.522 242.885C193.424 243.555 191.773 244.412 189.619 245.217C185.365 246.848 178.864 248.03 171.923 246.618C164.993 245.196 159.474 241.547 156.203 238.379C154.541 236.789 153.36 235.357 152.607 234.311C152.22 233.799 151.969 233.37 151.781 233.088C151.604 232.805 151.51 232.648 151.53 232.638C151.572 232.607 151.98 233.182 152.774 234.175C153.569 235.168 154.781 236.559 156.454 238.096C159.757 241.16 165.213 244.694 172.017 246.085C178.822 247.476 185.229 246.378 189.473 244.862C191.616 244.109 193.278 243.314 194.396 242.708C195.515 242.101 196.121 241.746 196.152 241.777H196.173Z" fill="white"/>
<path d="M226.621 307.978C226.621 307.978 226.506 307.821 226.318 307.497C226.12 307.152 225.848 306.671 225.492 306.054C224.824 304.747 223.601 302.959 221.918 300.752C221.468 300.219 220.998 299.665 220.496 299.069C220.245 298.776 219.994 298.473 219.733 298.17C219.44 297.887 219.148 297.595 218.845 297.302C218.238 296.706 217.611 296.089 216.963 295.451C216.263 294.865 215.521 294.259 214.768 293.621C211.685 291.174 207.87 288.727 203.291 286.793C198.724 284.879 193.393 283.447 187.56 283.144C181.738 282.809 175.456 283.708 169.342 286.071C163.227 288.476 157.321 292.115 151.07 295.629C147.945 297.385 144.705 299.1 141.256 300.491C137.817 301.892 134.148 302.969 130.333 303.356C126.518 303.795 122.702 303.44 119.054 302.677C115.406 301.903 111.947 300.617 108.675 299.132C102.111 296.141 96.362 292.199 90.9998 288.382C85.6272 284.566 80.5682 280.885 75.5196 277.936C70.4815 274.998 65.4748 272.739 60.6457 271.579C55.8166 270.428 51.2698 270.24 47.3605 270.7C43.4408 271.129 40.1796 272.248 37.7024 273.492C35.1938 274.716 33.5736 276.169 32.4448 277.1C31.943 277.602 31.5459 277.999 31.2741 278.281C31.0023 278.543 30.856 278.668 30.856 278.668C30.856 278.668 30.971 278.522 31.2323 278.239C31.504 277.947 31.8803 277.539 32.3716 277.016C33.4796 276.054 35.0893 274.559 37.6083 273.304C40.0856 272.018 43.3677 270.857 47.3187 270.397C51.2593 269.895 55.848 270.062 60.7293 271.202C65.6106 272.352 70.6697 274.601 75.7391 277.539C80.8295 280.488 85.9094 284.168 91.282 287.964C96.6546 291.76 102.383 295.681 108.895 298.64C112.145 300.104 115.563 301.39 119.169 302.143C122.765 302.896 126.518 303.241 130.27 302.812C134.022 302.426 137.639 301.369 141.047 299.979C144.464 298.598 147.684 296.894 150.809 295.148C157.049 291.655 162.976 288.016 169.153 285.59C170.711 285.015 172.237 284.451 173.815 284.085C174.599 283.886 175.362 283.646 176.146 283.489C176.93 283.363 177.714 283.227 178.487 283.102C181.581 282.589 184.644 282.558 187.581 282.683C193.466 283.018 198.839 284.482 203.427 286.437C208.026 288.403 211.852 290.902 214.946 293.381C215.709 294.018 216.441 294.635 217.141 295.231C217.789 295.88 218.416 296.518 219.022 297.114C219.325 297.417 219.618 297.71 219.9 297.992C220.162 298.306 220.413 298.609 220.663 298.912C221.155 299.508 221.625 300.073 222.074 300.617C223.736 302.854 224.928 304.674 225.576 306.002C225.911 306.64 226.172 307.121 226.36 307.476C226.538 307.811 226.611 307.988 226.611 307.988L226.621 307.978Z" fill="white"/>
<path d="M195.034 351.656C195.034 351.656 194.856 351.719 194.501 351.792C194.083 351.876 193.581 351.97 192.954 352.085C192.285 352.221 191.459 352.357 190.498 352.44C189.536 352.535 188.438 352.702 187.215 352.723C186.599 352.754 185.961 352.775 185.303 352.806C184.634 352.827 183.944 352.796 183.223 352.786C181.78 352.796 180.254 352.65 178.644 352.524C175.435 352.169 171.923 351.541 168.328 350.516C164.743 349.45 161.45 348.09 158.544 346.668C157.112 345.905 155.743 345.215 154.541 344.431C153.935 344.044 153.328 343.709 152.774 343.333C152.231 342.956 151.708 342.58 151.206 342.235C150.193 341.555 149.346 340.834 148.593 340.227C147.82 339.631 147.203 339.077 146.712 338.606C146.252 338.178 145.876 337.822 145.573 337.529C145.311 337.278 145.186 337.142 145.196 337.122C145.207 337.101 145.364 337.216 145.646 337.446C145.97 337.718 146.367 338.042 146.858 338.45C147.37 338.899 148.008 339.432 148.792 339.997C149.565 340.572 150.412 341.273 151.436 341.921C151.938 342.266 152.471 342.611 153.015 342.988C153.569 343.354 154.175 343.688 154.781 344.054C155.994 344.818 157.353 345.487 158.774 346.229C161.659 347.62 164.931 348.958 168.485 350.004C172.038 351.018 175.519 351.656 178.697 352.033C180.296 352.169 181.811 352.336 183.233 352.346C183.944 352.357 184.634 352.409 185.292 352.399C185.951 352.378 186.588 352.367 187.195 352.346C188.407 352.346 189.505 352.21 190.466 352.148C191.428 352.085 192.254 351.98 192.923 351.886C193.55 351.813 194.062 351.74 194.48 351.688C194.835 351.646 195.023 351.635 195.034 351.656Z" fill="white"/>
<path d="M620.577 269.278L655.384 265.869L658.99 302.771L624.183 306.179L630.183 367.497L584.401 371.972L578.401 310.655L460.152 322.22L456.274 294.28L555.939 96.5561L603.236 91.9238L620.577 269.268V269.278ZM500.822 281L574.795 273.764L563.862 161.91L562.691 161.648L559.701 170.16L500.822 281.01V281Z" fill="#DE5C05"/>
<path d="M649.687 266.436L684.494 263.027L688.1 299.928L653.293 303.337L659.293 364.654L613.511 369.13L607.511 307.812L489.262 319.377L485.384 291.437L585.049 93.7136L632.347 89.0918L649.687 266.436ZM529.933 278.157L603.905 270.921L592.972 159.067L591.801 158.795L588.812 167.307L529.933 278.157Z" fill="#FF6600"/>
<path d="M486.722 296.674C486.722 296.674 486.377 296.988 485.687 297.458C485.008 297.939 484.005 298.608 482.761 299.424C480.273 301.055 476.792 303.251 472.904 305.593C469.005 307.936 465.441 309.975 462.828 311.407C461.521 312.129 460.465 312.693 459.723 313.07C458.981 313.446 458.563 313.645 458.542 313.614C458.521 313.582 458.908 313.321 459.619 312.892C460.424 312.411 461.438 311.794 462.64 311.083C465.295 309.504 468.775 307.434 472.622 305.133C476.447 302.812 479.918 300.71 482.562 299.11C483.764 298.389 484.768 297.782 485.583 297.291C486.304 296.872 486.712 296.653 486.733 296.684L486.722 296.674Z" fill="#E8505B"/>
<path d="M499.16 263.275C499.16 263.275 498.669 263.673 497.718 264.321C496.767 264.959 495.387 265.869 493.662 266.977C490.213 269.183 485.405 272.163 480.053 275.384C474.691 278.605 469.81 281.449 466.245 283.467C464.458 284.471 463.005 285.276 462.002 285.809C460.988 286.343 460.423 286.625 460.403 286.594C460.382 286.562 460.915 286.217 461.897 285.632C462.953 284.994 464.364 284.157 466.057 283.143C469.643 280.999 474.461 278.113 479.781 274.934C485.091 271.735 489.889 268.828 493.474 266.674C495.168 265.649 496.568 264.812 497.624 264.164C498.607 263.579 499.16 263.265 499.181 263.296L499.16 263.275Z" fill="#E8505B"/>
<path d="M515.801 232.711C515.801 232.711 515.278 233.119 514.285 233.767C513.292 234.415 511.839 235.336 510.031 236.454C506.414 238.682 501.376 241.693 495.784 244.956C490.182 248.208 485.07 251.094 481.339 253.122C479.478 254.136 477.952 254.942 476.897 255.485C475.841 256.029 475.245 256.311 475.224 256.28C475.203 256.249 475.768 255.904 476.792 255.308C477.9 254.67 479.363 253.823 481.14 252.788C484.893 250.623 489.931 247.706 495.502 244.485C501.063 241.244 506.09 238.316 509.832 236.13C511.609 235.095 513.073 234.238 514.17 233.6C515.195 233.004 515.78 232.69 515.79 232.721L515.801 232.711Z" fill="#E8505B"/>
<path d="M602.703 252.935C602.703 252.935 602.348 253.238 601.669 253.698C600.979 254.158 599.975 254.817 598.721 255.612C596.212 257.201 592.721 259.334 588.812 261.614C584.903 263.883 581.307 265.859 578.694 267.25C577.387 267.94 576.321 268.494 575.579 268.86C574.837 269.226 574.419 269.414 574.398 269.383C574.377 269.352 574.764 269.101 575.474 268.672C576.29 268.201 577.304 267.616 578.506 266.915C581.171 265.378 584.673 263.37 588.54 261.143C592.387 258.885 595.867 256.845 598.522 255.287C599.724 254.587 600.738 254.001 601.554 253.52C602.275 253.112 602.682 252.903 602.703 252.935Z" fill="#E8505B"/>
<path d="M607.428 310.289C607.428 310.289 607.093 310.592 606.424 311.052C605.766 311.512 604.794 312.161 603.581 312.945C601.167 314.524 597.78 316.636 593.996 318.895C590.212 321.153 586.732 323.109 584.202 324.489C582.938 325.179 581.903 325.723 581.181 326.089C580.46 326.455 580.053 326.643 580.032 326.601C580.011 326.57 580.387 326.319 581.077 325.901C581.871 325.43 582.854 324.845 584.014 324.154C586.606 322.628 589.982 320.641 593.724 318.435C597.446 316.197 600.801 314.179 603.383 312.631C604.543 311.941 605.525 311.356 606.32 310.885C607.02 310.477 607.417 310.268 607.438 310.299L607.428 310.289Z" fill="#E8505B"/>
<path d="M609.78 330.293C609.78 330.293 609.445 330.596 608.776 331.056C608.118 331.516 607.146 332.165 605.933 332.949C603.519 334.528 600.132 336.64 596.348 338.899C592.564 341.157 589.084 343.113 586.554 344.493C585.289 345.183 584.255 345.727 583.533 346.093C582.812 346.459 582.405 346.647 582.384 346.605C582.363 346.563 582.739 346.323 583.429 345.905C584.223 345.434 585.206 344.849 586.366 344.158C588.958 342.632 592.334 340.645 596.076 338.439C599.798 336.201 603.153 334.183 605.735 332.635C606.895 331.945 607.877 331.36 608.672 330.889C609.372 330.481 609.769 330.272 609.79 330.303L609.78 330.293Z" fill="#E8505B"/>
<path d="M612.131 350.285C612.131 350.285 611.797 350.588 611.128 351.048C610.47 351.509 609.497 352.157 608.285 352.941C605.87 354.52 602.484 356.632 598.7 358.891C594.916 361.15 591.436 363.105 588.906 364.485C587.641 365.175 586.606 365.719 585.885 366.085C585.164 366.451 584.756 366.639 584.735 366.597C584.714 366.566 585.091 366.315 585.781 365.897C586.575 365.426 587.558 364.841 588.718 364.151C591.31 362.624 594.686 360.637 598.428 358.431C602.149 356.193 605.505 354.175 608.086 352.627C609.247 351.937 610.229 351.352 611.024 350.881C611.724 350.473 612.121 350.264 612.142 350.296L612.131 350.285Z" fill="#E8505B"/>
<path d="M600.247 231.802C600.247 231.802 599.892 232.105 599.212 232.565C598.522 233.025 597.519 233.684 596.264 234.479C593.756 236.068 590.265 238.201 586.355 240.481C582.446 242.75 578.851 244.726 576.237 246.117C574.931 246.807 573.865 247.361 573.123 247.727C572.38 248.093 571.962 248.281 571.941 248.25C571.921 248.219 572.307 247.968 573.018 247.539C573.833 247.069 574.847 246.473 576.049 245.782C578.715 244.245 582.216 242.238 586.084 240.01C589.93 237.752 593.411 235.713 596.066 234.155C597.268 233.454 598.282 232.868 599.097 232.387C599.818 231.98 600.226 231.771 600.247 231.802Z" fill="#E8505B"/>
<path d="M597.801 210.659C597.801 210.659 597.446 210.963 596.766 211.423C596.076 211.883 595.073 212.542 593.819 213.336C591.31 214.926 587.819 217.059 583.91 219.338C580 221.607 576.405 223.584 573.792 224.974C572.485 225.665 571.419 226.219 570.677 226.585C569.935 226.951 569.517 227.139 569.496 227.108C569.475 227.076 569.861 226.825 570.572 226.397C571.387 225.926 572.401 225.33 573.603 224.64C576.269 223.103 579.77 221.095 583.638 218.868C587.484 216.609 590.965 214.57 593.62 213.012C594.822 212.311 595.836 211.726 596.651 211.245C597.372 210.837 597.78 210.628 597.801 210.659Z" fill="#E8505B"/>
<path d="M595.345 189.526C595.345 189.526 595.01 189.819 594.362 190.258C593.704 190.697 592.753 191.325 591.561 192.088C589.178 193.604 585.854 195.643 582.133 197.808C578.401 199.972 574.983 201.844 572.485 203.161C571.241 203.82 570.217 204.343 569.506 204.688C568.795 205.033 568.398 205.211 568.377 205.18C568.356 205.148 568.722 204.908 569.402 204.5C570.186 204.05 571.147 203.486 572.297 202.816C574.847 201.352 578.182 199.439 581.861 197.327C585.519 195.183 588.822 193.238 591.362 191.743C592.502 191.084 593.474 190.519 594.258 190.059C594.948 189.672 595.334 189.474 595.355 189.505L595.345 189.526Z" fill="#E8505B"/>
<path d="M594.927 169.513C595 169.649 592.815 170.967 590.056 172.462C587.296 173.957 584.997 175.066 584.924 174.93C584.85 174.794 587.035 173.476 589.794 171.981C592.554 170.486 594.853 169.377 594.927 169.513Z" fill="#E8505B"/>
<path d="M532.253 201.133C532.253 201.133 531.731 201.541 530.738 202.189C529.745 202.837 528.292 203.757 526.483 204.876C522.867 207.104 517.829 210.115 512.237 213.377C506.634 216.629 501.523 219.516 497.791 221.544C495.931 222.558 494.405 223.364 493.349 223.907C492.293 224.451 491.697 224.733 491.677 224.702C491.656 224.671 492.22 224.326 493.244 223.73C494.352 223.092 495.816 222.245 497.593 221.209C501.345 219.045 506.383 216.128 511.954 212.907C517.515 209.665 522.543 206.738 526.285 204.552C528.062 203.517 529.525 202.659 530.623 202.022C531.647 201.426 532.232 201.112 532.243 201.143L532.253 201.133Z" fill="#E8505B"/>
<path d="M548.716 169.553C548.716 169.553 548.193 169.961 547.2 170.609C546.207 171.257 544.754 172.177 542.946 173.296C539.33 175.523 534.291 178.535 528.699 181.797C523.097 185.049 517.985 187.935 514.254 189.964C512.393 190.978 510.867 191.783 509.812 192.327C508.756 192.871 508.16 193.153 508.139 193.122C508.118 193.091 508.683 192.745 509.707 192.149C510.815 191.512 512.278 190.665 514.055 189.629C517.808 187.465 522.846 184.547 528.417 181.327C533.978 178.085 539.005 175.157 542.748 172.972C544.524 171.937 545.988 171.079 547.085 170.442C548.11 169.846 548.695 169.532 548.705 169.563L548.716 169.553Z" fill="#E8505B"/>
<path d="M563.621 138.195C563.621 138.195 563.099 138.603 562.106 139.251C561.113 139.9 559.66 140.82 557.852 141.939C554.235 144.166 549.197 147.178 543.605 150.44C538.002 153.692 532.891 156.578 529.159 158.607C527.299 159.621 525.773 160.426 524.717 160.97C523.661 161.514 523.066 161.796 523.045 161.764C523.024 161.733 523.588 161.388 524.613 160.792C525.72 160.154 527.184 159.307 528.961 158.272C532.713 156.107 537.751 153.19 543.322 149.969C548.883 146.728 553.911 143.8 557.653 141.615C559.43 140.579 560.893 139.722 561.991 139.084C563.015 138.488 563.6 138.174 563.611 138.206L563.621 138.195Z" fill="#E8505B"/>
<path d="M579.446 107.828C579.446 107.828 578.924 108.236 577.931 108.884C576.938 109.533 575.485 110.453 573.677 111.572C570.06 113.799 565.022 116.81 559.43 120.073C553.827 123.325 548.716 126.211 544.985 128.239C543.124 129.254 541.598 130.059 540.542 130.603C539.486 131.146 538.891 131.429 538.87 131.397C538.849 131.366 539.413 131.021 540.438 130.425C541.546 129.787 543.009 128.94 544.786 127.905C548.538 125.74 553.576 122.823 559.148 119.602C564.708 116.361 569.736 113.433 573.478 111.247C575.255 110.212 576.718 109.355 577.816 108.717C578.84 108.121 579.426 107.807 579.436 107.839L579.446 107.828Z" fill="#E8505B"/>
<path d="M637.813 142.502C637.813 142.502 637.656 142.774 637.301 143.266C636.956 143.757 636.444 144.489 635.681 145.346C634.207 147.082 631.824 149.456 628.375 151.683C624.936 153.9 620.368 155.918 614.995 156.796C612.309 157.236 609.435 157.34 606.497 157.047C603.55 156.776 600.56 156.023 597.592 155.092C591.644 153.168 586.24 150.669 581.087 149.132C575.966 147.532 571.063 147.082 567.029 147.521C562.984 147.95 559.911 149.31 558.029 150.564C557.099 151.202 556.399 151.746 555.97 152.164C555.531 152.562 555.28 152.771 555.27 152.76C555.259 152.75 555.468 152.52 555.897 152.091C556.304 151.641 556.984 151.066 557.914 150.387C559.785 149.069 562.89 147.616 566.987 147.135C571.063 146.643 576.039 147.061 581.234 148.651C586.439 150.177 591.853 152.666 597.759 154.569C600.717 155.5 603.654 156.242 606.56 156.514C609.456 156.817 612.288 156.713 614.933 156.305C620.232 155.458 624.748 153.513 628.176 151.359C631.615 149.194 634.009 146.894 635.535 145.211C636.319 144.384 636.852 143.673 637.217 143.203C637.594 142.732 637.803 142.492 637.813 142.502Z" fill="white"/>
<path d="M616.135 93.3578C616.135 93.3578 615.727 93.7238 614.933 94.3094C614.138 94.9054 612.947 95.6896 611.431 96.5994C609.915 97.5196 608.055 98.5025 605.933 99.4958C603.801 100.458 601.407 101.409 598.825 102.225C596.244 103.02 593.735 103.605 591.425 104.024C589.115 104.421 587.024 104.672 585.258 104.776C583.491 104.891 582.059 104.923 581.077 104.881C580.084 104.86 579.54 104.829 579.54 104.787C579.54 104.745 580.084 104.714 581.066 104.672C582.049 104.64 583.471 104.557 585.227 104.39C586.983 104.233 589.052 103.95 591.331 103.532C593.609 103.082 596.097 102.497 598.658 101.702C601.208 100.897 603.592 99.9664 605.724 99.0358C607.835 98.0842 609.706 97.1327 611.232 96.2648C612.759 95.4073 613.981 94.6649 614.807 94.1316C615.643 93.6088 616.114 93.3265 616.135 93.3578Z" fill="white"/>
<path d="M558.991 218.772C558.991 218.772 558.583 218.469 557.914 217.862C557.162 217.182 556.2 216.325 555.05 215.3C552.615 213.167 549.155 210.302 545.099 207.468C543.072 206.057 541.044 204.865 539.079 204.059C537.114 203.254 535.222 202.867 533.623 202.784C530.382 202.616 528.511 203.599 528.49 203.474C528.49 203.453 528.595 203.39 528.814 203.286C529.034 203.181 529.358 203.045 529.797 202.909C530.664 202.627 531.992 202.355 533.643 202.397C535.285 202.428 537.25 202.784 539.277 203.589C541.305 204.384 543.385 205.586 545.423 207.008C549.51 209.852 552.939 212.78 555.322 214.997C556.514 216.105 557.444 217.036 558.071 217.695C558.698 218.354 559.033 218.74 559.001 218.761L558.991 218.772Z" fill="white"/>
<path d="M645.977 238.326C645.977 238.326 645.862 238.462 645.621 238.692C645.37 238.912 645.015 239.267 644.503 239.654C643.51 240.47 641.994 241.547 639.977 242.655C635.995 244.872 629.723 246.953 622.657 246.535C615.591 246.106 609.623 243.262 605.933 240.585C604.062 239.247 602.693 237.992 601.804 237.061C601.344 236.611 601.041 236.214 600.811 235.974C600.592 235.712 600.487 235.576 600.498 235.566C600.529 235.534 601.02 236.047 601.951 236.915C602.871 237.793 604.271 238.996 606.153 240.271C609.853 242.844 615.748 245.573 622.688 245.991C629.629 246.409 635.806 244.423 639.799 242.321C641.817 241.275 643.353 240.25 644.377 239.497C645.402 238.745 645.956 238.295 645.977 238.337V238.326Z" fill="white"/>
<path d="M685.445 299.592C685.445 299.592 685.31 299.446 685.08 299.153C684.839 298.839 684.494 298.4 684.055 297.835C683.209 296.643 681.745 295.043 679.77 293.088C679.247 292.628 678.704 292.137 678.129 291.624C677.836 291.373 677.543 291.101 677.24 290.84C676.916 290.599 676.582 290.359 676.247 290.097C675.568 289.596 674.857 289.073 674.125 288.529C673.341 288.048 672.537 287.546 671.69 287.034C668.293 285.047 664.175 283.154 659.366 281.889C654.569 280.634 649.092 279.976 643.28 280.488C637.468 280.969 631.375 282.747 625.657 285.946C619.939 289.188 614.609 293.621 608.912 297.971C606.059 300.146 603.09 302.3 599.881 304.172C596.672 306.044 593.191 307.623 589.47 308.553C585.76 309.526 581.924 309.714 578.213 309.463C574.492 309.212 570.886 308.417 567.436 307.414C560.517 305.375 554.277 302.279 548.423 299.257C542.57 296.235 537.041 293.297 531.626 291.091C526.222 288.885 520.944 287.358 516.01 286.887C511.066 286.427 506.54 286.877 502.735 287.891C498.91 288.864 495.837 290.432 493.568 292.011C491.258 293.569 489.858 295.242 488.875 296.319C488.447 296.894 488.112 297.333 487.882 297.658C487.652 297.961 487.527 298.107 487.527 298.107C487.527 298.107 487.621 297.94 487.84 297.626C488.07 297.302 488.384 296.842 488.802 296.256C489.764 295.158 491.154 293.444 493.464 291.844C495.732 290.213 498.826 288.602 502.673 287.598C506.509 286.553 511.076 286.072 516.062 286.511C521.059 286.96 526.379 288.477 531.814 290.673C537.26 292.868 542.821 295.796 548.674 298.808C554.528 301.809 560.747 304.883 567.604 306.901C571.022 307.895 574.596 308.679 578.265 308.93C581.924 309.17 585.697 308.982 589.355 308.031C593.014 307.121 596.442 305.563 599.63 303.712C602.818 301.861 605.766 299.728 608.619 297.553C614.306 293.214 619.668 288.78 625.438 285.507C626.89 284.723 628.333 283.949 629.838 283.363C630.58 283.06 631.312 282.715 632.054 282.443C632.817 282.203 633.57 281.973 634.312 281.732C637.312 280.791 640.332 280.331 643.259 280.038C649.133 279.536 654.652 280.237 659.481 281.523C664.321 282.83 668.45 284.754 671.857 286.772C672.693 287.295 673.509 287.808 674.293 288.299C675.024 288.853 675.735 289.386 676.415 289.899C676.749 290.15 677.083 290.401 677.408 290.652C677.711 290.924 678.003 291.195 678.285 291.446C678.86 291.969 679.404 292.461 679.927 292.931C681.892 294.918 683.324 296.549 684.149 297.762C684.567 298.337 684.902 298.787 685.132 299.111C685.351 299.414 685.456 299.582 685.456 299.582L685.445 299.592Z" fill="white"/>
<path d="M660.297 347.274C660.297 347.274 660.129 347.369 659.795 347.484C659.398 347.619 658.906 347.787 658.311 347.996C657.663 348.226 656.868 348.477 655.928 348.697C654.987 348.927 653.921 349.24 652.719 349.439C652.112 349.554 651.485 349.669 650.837 349.794C650.179 349.909 649.489 349.972 648.778 350.066C647.356 350.275 645.82 350.349 644.21 350.453C640.98 350.558 637.416 350.432 633.716 349.92C630.016 349.366 626.566 348.487 623.493 347.484C621.978 346.929 620.514 346.438 619.208 345.831C618.549 345.539 617.901 345.288 617.305 344.984C616.71 344.681 616.145 344.388 615.591 344.117C614.483 343.594 613.553 342.987 612.717 342.506C611.87 342.025 611.18 341.565 610.626 341.168C610.114 340.802 609.686 340.509 609.341 340.258C609.048 340.049 608.902 339.923 608.912 339.913C608.922 339.903 609.09 339.986 609.403 340.164C609.759 340.384 610.198 340.655 610.741 340.98C611.316 341.346 612.016 341.785 612.874 342.234C613.72 342.694 614.661 343.27 615.769 343.771C616.312 344.033 616.887 344.315 617.483 344.598C618.079 344.88 618.727 345.12 619.385 345.403C620.692 345.988 622.135 346.459 623.65 346.992C626.702 347.965 630.131 348.822 633.799 349.366C637.468 349.868 640.991 350.014 644.2 349.941C645.799 349.857 647.325 349.805 648.736 349.606C649.447 349.523 650.137 349.47 650.785 349.366C651.433 349.261 652.06 349.146 652.666 349.052C653.868 348.885 654.934 348.592 655.875 348.393C656.826 348.205 657.621 347.975 658.279 347.787C658.886 347.619 659.387 347.484 659.795 347.379C660.14 347.295 660.328 347.254 660.338 347.274H660.297Z" fill="white"/>
<path d="M442.633 194.126L435.316 192.987L389.984 178.358L363.466 170.693C357.267 168.55 349.24 167.807 340.522 172.251C328 178.64 293.434 210.815 293.434 210.815L318.321 236.486L306.594 288.434C319.712 325.743 345.393 330.02 345.393 330.02C345.393 330.02 362.264 331.536 382.186 323.934C406.039 314.837 431.073 293.516 434.208 284.346C436.09 278.846 437.637 267.281 438.881 254.22L476.635 238.828L486.868 186.577L442.623 194.126H442.633Z" fill="#003399"/>
<path d="M387.486 286.605C387.486 286.605 387.371 286.731 387.12 286.93C386.859 287.118 386.503 287.431 385.991 287.756C384.988 288.446 383.462 289.345 381.455 290.192C377.483 291.907 371.284 293.193 364.71 291.771C358.135 290.328 353.034 286.574 350.139 283.353C348.665 281.743 347.651 280.29 347.035 279.244C346.7 278.732 346.512 278.303 346.355 278.02C346.209 277.738 346.136 277.581 346.157 277.571C346.198 277.55 346.543 278.125 347.212 279.129C347.881 280.133 348.937 281.534 350.421 283.092C353.348 286.198 358.386 289.826 364.825 291.238C371.264 292.639 377.357 291.436 381.308 289.836C383.305 289.042 384.852 288.205 385.876 287.578C386.901 286.95 387.455 286.564 387.486 286.605Z" fill="#263238"/>
<path d="M373.145 180.511C373.145 180.511 373.176 180.595 373.229 180.762C373.281 180.961 373.344 181.201 373.417 181.505C373.573 182.153 373.793 183.125 374.054 184.37C374.556 186.869 375.309 190.497 375.549 195.067C375.643 197.346 375.601 199.877 375.12 202.533C374.64 205.189 373.699 207.97 372.141 210.584C370.574 213.198 368.399 215.583 365.943 217.768C363.487 219.964 360.769 222.003 357.999 224.105C352.114 228.538 346.376 232.533 341.244 236.172C336.112 239.8 331.596 243.073 327.98 245.813L327.865 245.896L327.75 245.813C324.52 243.198 322.074 240.94 320.485 239.277C319.701 238.441 319.137 237.761 318.781 237.27C318.604 237.029 318.499 236.83 318.416 236.694C318.342 236.558 318.301 236.496 318.311 236.485C318.332 236.475 318.51 236.736 318.865 237.196C319.241 237.656 319.816 238.315 320.621 239.12C322.231 240.731 324.718 242.937 327.969 245.509H327.739C331.324 242.728 335.819 239.413 340.941 235.753C346.052 232.093 351.78 228.078 357.654 223.655C360.414 221.553 363.131 219.525 365.567 217.36C368.002 215.196 370.145 212.864 371.692 210.312C373.229 207.761 374.169 205.042 374.65 202.439C375.141 199.824 375.204 197.325 375.141 195.067C374.953 190.529 374.263 186.9 373.824 184.391C373.594 183.178 373.417 182.216 373.281 181.505C373.229 181.201 373.187 180.95 373.145 180.752C373.114 180.584 373.114 180.49 373.114 180.49L373.145 180.511Z" fill="#263238"/>
<path d="M569.997 204.05C580.617 194.952 584.202 178.567 578.37 165.852C573.384 165.339 568.398 164.827 563.412 164.304C571.001 160.32 575.579 151.254 574.283 142.774C566.224 151.474 552.27 154.046 541.64 148.786C534.657 145.336 528.992 138.905 521.32 137.556C514.358 136.333 507.512 139.595 500.843 141.969C494.185 144.342 486.105 145.649 480.586 141.226C476.207 137.723 474.858 131.575 475.141 125.981C475.423 120.376 477.043 114.918 477.388 109.323C478.067 98.3438 473.311 87.2808 465.273 79.8148C462.754 71.8468 456.723 64.9769 448.999 61.7144C439.654 57.7618 428.23 59.2571 420.213 65.4683C416.941 67.9988 414.181 71.2717 410.471 73.1016C406.279 75.172 401.408 75.172 396.872 76.2909C392.336 77.4098 387.58 80.4108 387.088 85.064L385.259 94.5899C384.956 95.2696 384.632 95.9493 384.256 96.5976C380.399 103.363 372.518 107.807 370.803 115.399C369.842 119.654 371.033 124.266 369.601 128.386C367.71 133.813 361.856 136.866 359.128 141.916C355.386 148.86 357.926 161.01 363.915 166.144C369.905 171.279 382.249 176.706 389.963 178.347C392.053 170.327 393.904 161.753 395.691 152.98C398.837 156.001 402.13 158.877 405.412 161.732C414.004 169.198 422.773 176.779 428.731 186.472C440.051 204.896 440.24 229.323 454.497 245.583C457.288 248.772 460.685 251.617 464.74 252.84C468.796 254.074 473.604 253.415 476.604 250.424C480.147 246.89 480.607 240.93 484.516 237.824C489.722 233.694 497.331 236.988 502.934 240.574C506.989 243.168 511.035 245.907 515.634 247.329C520.233 248.751 525.574 248.657 529.473 245.855C533.382 243.053 535.096 237.071 532.274 233.171C531.145 231.613 529.462 230.526 528.344 228.957C527.225 227.389 526.901 224.91 528.428 223.75C530.121 222.464 532.483 223.708 534.323 224.785C543.26 230.045 554.58 231.048 564.301 227.43C574.021 223.812 581.934 215.656 585.268 205.838C580.136 206.632 574.784 206.005 569.976 204.05H569.997Z" fill="#263238"/>
<path d="M560.684 121.986C560.684 121.986 561.186 122.331 562.033 123.146C562.858 123.962 564.081 125.227 565.106 127.214C565.607 128.207 566.046 129.389 566.255 130.738C566.443 132.076 566.37 133.624 565.743 135.109C565.137 136.583 564.081 138.026 562.534 139.009C561.761 139.49 560.862 139.856 559.9 139.961C558.928 140.076 557.914 139.919 556.973 139.532C553.096 137.953 551.151 133.467 546.95 131.47C542.863 129.305 537.636 129.159 532.609 130.309C527.529 131.47 522.7 134.189 517.745 136.97C512.812 139.731 507.543 142.732 501.491 143.767C498.502 144.311 495.419 144.352 492.502 143.704C491.049 143.359 489.649 142.847 488.342 142.157C487.046 141.456 485.875 140.557 484.83 139.553C482.761 137.514 481.308 135.004 480.325 132.421C479.332 129.839 478.789 127.172 478.485 124.558C477.932 119.309 478.371 114.321 478.423 109.678C478.517 105.046 478.245 100.686 477.158 96.9004C476.646 95.0078 475.945 93.2511 475.162 91.6617C474.388 90.0618 473.531 88.6293 472.632 87.3431C470.845 84.7708 468.953 82.8154 467.28 81.3829C465.618 79.9294 464.166 79.0092 463.193 78.3714C462.713 78.089 462.336 77.859 462.054 77.7021C461.803 77.5453 461.667 77.4616 461.678 77.4512C461.678 77.4512 461.824 77.5139 462.085 77.6498C462.368 77.8067 462.754 78.0158 463.256 78.2772C464.249 78.8942 465.723 79.783 467.416 81.226C469.12 82.6481 471.043 84.593 472.872 87.1758C473.792 88.462 474.681 89.905 475.465 91.5153C476.27 93.1151 476.98 94.8823 477.524 96.7959C478.653 100.633 478.945 105.025 478.872 109.678C478.841 114.332 478.423 119.319 478.987 124.495C479.29 127.078 479.844 129.703 480.816 132.233C481.788 134.753 483.2 137.2 485.206 139.166C486.22 140.128 487.339 141.006 488.593 141.676C489.847 142.334 491.206 142.836 492.617 143.171C495.45 143.798 498.45 143.767 501.387 143.223C507.324 142.209 512.529 139.26 517.473 136.5C522.428 133.729 527.299 130.989 532.483 129.818C535.055 129.253 537.647 128.971 540.145 129.169C541.399 129.232 542.612 129.483 543.793 129.766C544.953 130.121 546.103 130.497 547.138 131.073C551.475 133.195 553.42 137.702 557.099 139.176C558.886 139.95 560.872 139.657 562.336 138.716C563.82 137.796 564.855 136.416 565.451 134.994C566.067 133.572 566.151 132.087 565.984 130.769C565.795 129.452 565.388 128.291 564.896 127.308C563.903 125.342 562.722 124.056 561.928 123.22C561.52 122.801 561.196 122.498 560.977 122.299C560.757 122.101 560.642 121.996 560.653 121.986H560.684Z" fill="#263238"/>
<path d="M389.817 182.342C389.817 182.342 389.775 182.185 389.733 181.872C389.681 181.558 389.639 181.087 389.451 180.502C389.137 179.32 388.416 177.605 386.88 175.838C385.322 174.102 383.002 172.335 379.95 171.018C376.918 169.638 373.166 168.958 369.037 168.174C364.95 167.368 360.257 166.521 356.055 163.719C351.926 160.927 348.623 156.18 347.777 150.586C346.92 145.023 348.717 138.77 352.982 134.326C357.309 129.882 363.424 127.686 368.42 123.775C369.654 122.771 370.772 121.663 371.713 120.429C372.591 119.153 373.312 117.773 373.72 116.288C374.546 113.318 374.483 110.213 374.765 107.191C374.901 105.675 375.131 104.169 375.601 102.726C376.061 101.283 376.824 99.9443 377.807 98.815C379.835 96.5878 382.625 95.4166 385.28 94.6533C387.967 93.8691 390.632 93.3881 393.162 92.6875C395.681 91.9869 398.053 91.0458 400.039 89.6132C402.057 88.233 403.729 86.5181 405.203 84.7823C406.677 83.036 407.931 81.2375 409.091 79.4912C411.401 75.9883 413.377 72.7258 415.478 70.1117C417.547 67.4766 419.648 65.4585 421.572 64.0887C423.495 62.7084 425.199 61.9765 426.38 61.6105C427.561 61.234 428.209 61.1504 428.209 61.1504C428.209 61.1922 427.571 61.3072 426.411 61.715C425.251 62.1124 423.568 62.8653 421.687 64.256C419.795 65.6363 417.735 67.6544 415.708 70.2894C413.638 72.9036 411.694 76.1661 409.405 79.6899C408.245 81.4466 406.99 83.2661 405.516 85.0437C404.043 86.8109 402.349 88.5467 400.29 89.9792C398.262 91.4536 395.816 92.4365 393.277 93.1476C390.726 93.8586 388.061 94.3501 385.406 95.1343C382.772 95.8976 380.096 97.0479 378.173 99.1601C377.253 100.237 376.521 101.492 376.082 102.883C375.633 104.263 375.413 105.737 375.277 107.233C374.995 110.213 375.079 113.35 374.222 116.434C373.803 117.972 373.051 119.415 372.131 120.742C371.159 122.039 369.999 123.168 368.744 124.193C366.194 126.19 363.393 127.717 360.706 129.306C358.031 130.885 355.438 132.558 353.348 134.692C349.198 139 347.432 145.096 348.247 150.502C349.052 155.95 352.271 160.603 356.285 163.343C360.372 166.093 365.013 166.971 369.089 167.797C373.197 168.592 376.991 169.303 380.054 170.735C383.127 172.095 385.469 173.914 387.026 175.692C388.562 177.501 389.263 179.268 389.545 180.471C389.712 181.067 389.744 181.548 389.775 181.861C389.806 182.175 389.806 182.342 389.806 182.342H389.817Z" fill="#263238"/>
<path d="M473.27 88.4729C473.27 88.4729 472.977 88.4311 472.465 88.2638C471.953 88.1069 471.242 87.8141 470.374 87.4168C468.639 86.6221 466.35 85.2732 464.134 83.3701C461.929 81.467 460.246 79.3966 459.201 77.8072C458.678 77.0125 458.291 76.3432 458.051 75.8622C457.81 75.3917 457.695 75.1198 457.727 75.0989C457.81 75.0571 458.396 76.0714 459.514 77.5876C460.622 79.1038 462.315 81.0905 464.479 82.9623C466.653 84.8235 468.869 86.2038 470.531 87.0717C472.193 87.9501 473.28 88.3788 473.249 88.4624L473.27 88.4729Z" fill="#455A64"/>
<path d="M508.024 159.798C508.024 159.798 507.366 159.641 506.185 159.379C505.003 159.118 503.268 158.856 501.115 158.752C498.951 158.658 496.38 158.752 493.516 158.971C490.652 159.17 487.496 159.463 484.161 159.39C480.827 159.306 477.628 158.804 474.932 157.654C472.245 156.514 470.144 154.831 468.744 153.137C467.343 151.432 466.643 149.738 466.361 148.546C466.225 147.95 466.151 147.48 466.141 147.156C466.12 146.831 466.11 146.664 466.141 146.664C466.204 146.664 466.235 147.333 466.57 148.494C466.904 149.644 467.636 151.265 469.036 152.886C470.427 154.507 472.507 156.106 475.12 157.194C477.743 158.281 480.879 158.762 484.161 158.846C487.454 158.919 490.6 158.647 493.464 158.47C496.328 158.281 498.931 158.229 501.115 158.375C503.3 158.522 505.045 158.846 506.216 159.181C506.801 159.348 507.251 159.484 507.554 159.609C507.857 159.724 508.014 159.787 508.003 159.808L508.024 159.798Z" fill="#455A64"/>
<path d="M569.621 207.343C569.621 207.343 569.527 207.395 569.318 207.479C569.109 207.562 568.806 207.698 568.388 207.771C567.551 207.97 566.234 208.075 564.646 207.604C563.078 207.123 561.259 206.119 559.628 204.436C557.956 202.773 556.723 200.358 555.594 197.67C554.454 194.993 553.493 191.909 551.632 189.075C550.754 187.621 549.573 186.314 548.319 185.028C546.981 183.815 545.538 182.634 543.887 181.672C537.323 177.719 528.699 176.088 519.898 176.611C511.045 177.071 502.725 178.807 495.021 179.35C487.328 180.04 480.262 179.193 474.733 177.249C469.172 175.345 465.284 172.376 463.11 169.96C462.535 169.385 462.106 168.789 461.72 168.298C461.322 167.806 461.03 167.367 460.81 166.991C460.601 166.646 460.434 166.374 460.298 166.154C460.183 165.966 460.131 165.861 460.141 165.861C460.141 165.861 460.214 165.945 460.35 166.123C460.486 166.332 460.674 166.593 460.904 166.928C461.134 167.283 461.437 167.723 461.845 168.193C462.242 168.674 462.681 169.249 463.267 169.814C465.472 172.167 469.35 175.042 474.858 176.883C480.346 178.754 487.328 179.559 494.98 178.838C502.641 178.273 510.961 176.527 519.877 176.057C528.752 175.534 537.49 177.186 544.159 181.233C545.831 182.215 547.305 183.428 548.664 184.673C549.949 185.99 551.151 187.339 552.029 188.824C553.921 191.741 554.852 194.847 555.97 197.524C557.057 200.201 558.249 202.585 559.858 204.227C561.437 205.889 563.193 206.914 564.719 207.405C566.255 207.897 567.551 207.834 568.377 207.667C569.213 207.51 569.621 207.301 569.632 207.343H569.621Z" fill="#455A64"/>
<path d="M405.224 88.4734C401.168 88.3689 397.708 91.3908 397.259 95.4166L388.803 183.472C387.339 195.852 403.53 222.401 416.795 223.865C430.195 225.34 431.501 218.846 433.236 207.114C436.142 187.508 437.114 180.136 437.104 180.251C437.104 180.251 454.35 179.676 460.747 158.104C463.925 147.375 465.744 129.338 466.758 114.531C467.667 101.199 461.051 83.8307 447.703 83.4961L405.224 88.4734Z" fill="#FFBE9D"/>
<path d="M460.925 126.211C460.779 127.706 459.399 128.825 457.831 128.7C456.263 128.574 455.114 127.267 455.26 125.772C455.406 124.276 456.786 123.158 458.354 123.283C459.922 123.409 461.071 124.716 460.936 126.221L460.925 126.211Z" fill="#263238"/>
<path d="M462.127 120.513C461.803 120.91 459.535 119.467 456.483 119.687C453.42 119.865 451.288 121.59 450.932 121.245C450.755 121.088 451.068 120.398 451.999 119.614C452.908 118.84 454.507 118.035 456.41 117.909C458.312 117.784 459.963 118.38 460.936 119.028C461.929 119.687 462.294 120.335 462.127 120.513Z" fill="#263238"/>
<path d="M434.031 127.801C433.665 128.167 431.554 126.504 428.491 126.421C425.428 126.295 423.139 127.811 422.815 127.424C422.658 127.257 423.035 126.588 424.038 125.908C425.021 125.228 426.683 124.58 428.595 124.643C430.508 124.706 432.087 125.458 432.996 126.201C433.916 126.954 434.219 127.633 434.041 127.79L434.031 127.801Z" fill="#263238"/>
<path d="M439.738 143.999C439.738 143.821 441.682 143.748 444.787 143.759C445.57 143.78 446.323 143.727 446.532 143.215C446.793 142.682 446.574 141.803 446.313 140.841C445.832 138.865 445.33 136.795 444.797 134.63C442.717 125.794 441.327 118.569 441.682 118.485C442.038 118.401 444.013 125.501 446.093 134.337C446.584 136.512 447.065 138.593 447.504 140.569C447.682 141.49 448.058 142.556 447.504 143.665C447.222 144.219 446.595 144.564 446.083 144.627C445.571 144.71 445.131 144.668 444.745 144.627C441.64 144.386 439.728 144.146 439.738 143.978V143.999Z" fill="#263238"/>
<path d="M437.104 180.251C437.104 180.251 422.157 179.258 408.642 168.498C408.642 168.498 414.087 184.622 436.404 185.469L437.104 180.251Z" fill="#EB996E"/>
<path d="M434.459 122.561C433.979 123.303 431.083 122.226 427.488 121.818C423.892 121.348 420.829 121.714 420.537 120.877C420.411 120.48 421.08 119.832 422.408 119.309C423.725 118.786 425.7 118.462 427.864 118.723C430.017 118.985 431.867 119.769 433.017 120.585C434.177 121.4 434.679 122.195 434.459 122.55V122.561Z" fill="#263238"/>
<path d="M461.667 116.403C461.166 117.125 459.023 116.508 456.483 116.612C453.943 116.612 451.821 117.323 451.288 116.612C451.058 116.267 451.361 115.556 452.26 114.845C453.149 114.144 454.675 113.527 456.42 113.486C458.166 113.454 459.713 114.008 460.622 114.678C461.552 115.347 461.887 116.048 461.667 116.403Z" fill="#263238"/>
<path d="M432.338 149.549C433.728 148.608 435.484 148.242 437.125 148.546C437.961 148.702 438.808 149.048 439.351 149.706C440.073 150.564 440.156 151.777 440.125 152.906C440.104 153.575 440.062 154.265 439.832 154.893C439.602 155.52 439.163 156.106 438.557 156.388C437.93 156.681 437.198 156.608 436.508 156.493C435.369 156.304 434.23 155.98 433.278 155.321C432.327 154.663 431.585 153.648 431.47 152.498C431.355 151.348 432.003 150.114 433.09 149.717" fill="#EB996E"/>
<path d="M440.585 156.263C440.355 156.347 439.957 155.678 439.226 154.758C438.494 153.837 437.376 152.677 435.87 151.819C434.365 150.962 432.797 150.585 431.637 150.429C430.477 150.261 429.693 150.261 429.651 150.021C429.599 149.812 430.331 149.404 431.658 149.268C432.965 149.132 434.877 149.362 436.686 150.397C438.484 151.422 439.665 152.949 440.219 154.151C440.783 155.354 440.794 156.201 440.595 156.263H440.585Z" fill="#263238"/>
<path d="M387.622 177.417C394.876 175.974 400.478 169.732 402.976 162.757C405.475 155.793 405.349 148.17 404.68 140.798C404.597 139.847 404.44 138.79 403.687 138.205C402.59 137.358 401.011 138.048 399.83 138.77C395.252 141.561 390.862 144.646 386.681 148.013C382.793 151.15 378.946 154.758 377.451 159.515C375.162 166.825 380.002 175.556 387.413 177.49" fill="#263238"/>
<path d="M554.611 175.712L520.348 120.627L510.888 101.241C510.888 101.241 507.868 97.2357 504.732 93.8164C499.579 88.2012 494.499 92.5616 494.499 92.5616C494.499 92.5616 493.757 90.418 491.06 90.439C487.841 90.4703 486.325 92.8544 486.325 92.8544C486.325 92.8544 484.924 91.2964 481.036 91.0559C480.2 91.0036 479.364 91.3278 478.569 91.8506C477.294 90.7317 474.963 89.111 472.705 89.937C470.949 90.5749 460.298 98.6787 457.675 102.757C456.378 104.775 458.783 107.389 462.023 106.166C463.444 105.622 464.876 105.193 465.911 104.587C467.646 103.572 468.545 102.464 468.545 102.464C468.545 102.464 465.859 107.169 468.545 107.996C469.664 108.341 472.036 108.09 473.583 106.772C474.608 105.904 475.789 104.785 476.907 103.698C476.865 103.761 476.813 103.823 476.771 103.886C475.287 106.082 479.155 109.334 481.036 108.016C481.977 107.358 482.802 106.688 483.534 106.04C487.882 109.198 481.841 113.245 479.29 113.036C475.339 112.711 470.719 112.732 467.5 112.994C465.284 113.182 463.298 113.705 462.106 114.939C460.664 116.424 462.18 119.54 464.218 119.853C467.97 120.428 472.758 121.265 477.733 122.551C483.597 124.057 498.92 129.045 498.92 129.045L500.415 130.258L521.257 181.087L485.583 188.647L477.618 233.862L542.006 216.389C556.514 208.839 563.381 189.526 554.601 175.723L554.611 175.712Z" fill="#FFBE9D"/>
<path d="M498.92 129.035C498.92 129.035 498.638 128.983 498.105 128.836C497.53 128.669 496.756 128.449 495.795 128.178C493.736 127.571 490.861 126.714 487.328 125.658C485.541 125.114 483.586 124.528 481.485 123.89C479.384 123.242 477.147 122.573 474.754 121.966C472.371 121.36 469.852 120.753 467.207 120.408C465.921 120.21 464.469 120.335 463.11 119.666C462.775 119.499 462.451 119.29 462.19 118.976C462.064 118.819 461.949 118.652 461.876 118.411L461.793 117.857C461.709 117.135 461.699 116.383 461.929 115.64C462.169 114.887 462.754 114.27 463.413 113.925C464.061 113.559 464.751 113.35 465.409 113.131C466.779 112.691 468.19 112.618 469.538 112.618C472.256 112.65 474.817 113.026 477.262 112.932C478.485 112.89 479.677 112.786 480.806 112.587C481.945 112.378 483.032 112.085 484.098 111.813C486.21 111.248 488.29 110.841 490.192 111.039C492.084 111.196 493.725 111.729 495.105 112.294C496.485 112.859 497.613 113.465 498.533 113.978C499.443 114.49 500.133 114.919 500.603 115.201C501.063 115.494 501.303 115.661 501.293 115.672C501.282 115.682 501.021 115.557 500.54 115.295C500.007 115.013 499.307 114.636 498.429 114.155C497.499 113.674 496.37 113.099 494.99 112.566C493.621 112.033 492 111.541 490.161 111.416C488.321 111.248 486.325 111.667 484.213 112.242C483.158 112.524 482.06 112.838 480.889 113.057C479.719 113.277 478.517 113.392 477.273 113.434C474.775 113.549 472.182 113.183 469.528 113.152C468.2 113.152 466.841 113.235 465.566 113.643C464.291 114.061 462.827 114.511 462.441 115.807C462.242 116.424 462.253 117.115 462.326 117.794L462.388 118.275C462.42 118.38 462.503 118.516 462.587 118.62C462.786 118.85 463.047 119.028 463.329 119.164C464.5 119.75 465.901 119.656 467.249 119.854C469.935 120.21 472.454 120.837 474.848 121.454C477.242 122.081 479.489 122.761 481.579 123.43C483.67 124.089 485.614 124.696 487.401 125.26C490.913 126.379 493.777 127.299 495.826 127.948C496.777 128.261 497.54 128.512 498.105 128.7C498.627 128.878 498.899 128.983 498.889 129.004L498.92 129.035Z" fill="#EB996E"/>
<path d="M472.507 90.0212C472.559 90.1049 470.897 91.0773 468.43 92.9386C467.197 93.8692 465.786 95.0508 464.333 96.4939C462.87 97.916 461.333 99.589 459.514 101.147C458.626 101.9 457.79 102.716 457.581 103.73C457.476 104.221 457.518 104.734 457.758 105.131C457.988 105.539 458.396 105.811 458.835 105.968C459.744 106.271 460.716 106.187 461.594 106.02C462.472 105.853 463.277 105.612 463.988 105.33C466.841 104.169 468.159 102.653 468.232 102.757C468.253 102.778 467.949 103.155 467.291 103.73C466.632 104.305 465.587 105.058 464.134 105.685C463.413 105.999 462.587 106.271 461.678 106.459C460.779 106.647 459.734 106.773 458.668 106.438C458.145 106.271 457.612 105.926 457.298 105.392C456.974 104.87 456.922 104.211 457.037 103.615C457.277 102.381 458.249 101.482 459.138 100.729C460.925 99.1916 462.462 97.55 463.957 96.1279C465.451 94.6953 466.904 93.5346 468.179 92.6249C469.444 91.7152 470.531 91.0669 471.284 90.6277C472.047 90.199 472.475 89.9794 472.486 90.0108L472.507 90.0212Z" fill="#EB996E"/>
<path d="M485.583 94.3513C485.583 94.3513 485.175 94.8846 484.37 95.7943C483.503 96.7563 482.343 98.032 480.931 99.5796C479.447 101.19 477.702 103.062 475.778 105.143C474.785 106.209 473.604 107.202 472.162 107.903C471.441 108.248 470.636 108.51 469.768 108.499C468.911 108.478 468.012 108.227 467.364 107.537C467.019 107.182 466.852 106.701 466.789 106.23C466.747 105.759 466.821 105.31 466.925 104.881C467.165 104.034 467.563 103.292 468.033 102.591L468.054 102.56C469.894 100.604 471.608 98.764 473.155 97.07C474.723 95.4074 476.228 94.0481 477.451 92.8874C478.057 92.3123 478.621 91.7685 479.238 91.4444C479.876 91.1202 480.472 91.1307 480.931 91.0784C481.851 91.0157 482.395 91.0993 482.353 91.1934C482.374 91.1516 481.862 91.1411 480.952 91.2562C480.513 91.3398 479.907 91.3607 479.374 91.6744C478.82 91.9881 478.297 92.5319 477.691 93.1279C476.5 94.3199 475.026 95.7002 473.489 97.3733C471.984 99.0672 470.27 100.939 468.43 102.926L468.451 102.894C468.023 103.522 467.646 104.254 467.437 105.007C467.333 105.383 467.291 105.78 467.312 106.157C467.364 106.523 467.489 106.878 467.74 107.15C468.221 107.673 469.026 107.924 469.747 107.934C470.5 107.934 471.231 107.715 471.911 107.391C473.259 106.742 474.43 105.78 475.392 104.766C477.346 102.717 479.123 100.866 480.628 99.2764C482.092 97.7811 483.294 96.5367 484.193 95.6061C484.579 95.2192 484.914 94.8951 485.186 94.6232C485.416 94.4036 485.541 94.299 485.562 94.3095L485.583 94.3513Z" fill="#EB996E"/>
<path d="M501.596 99.3908C501.648 99.4327 501.544 99.7045 501.178 99.9973C500.822 100.28 500.174 100.552 499.443 100.426C498.711 100.301 498.188 99.83 497.958 99.4327C497.718 99.0353 497.708 98.7425 497.781 98.7216C497.854 98.6903 497.99 98.9203 498.261 99.1922C498.533 99.464 498.983 99.7882 499.537 99.8823C500.091 99.9764 500.624 99.83 500.969 99.6627C501.324 99.4954 501.523 99.3281 501.585 99.3804L501.596 99.3908Z" fill="#EB996E"/>
<path d="M502.85 104.189C502.735 104.283 501.951 103.499 501.261 102.328C500.572 101.157 500.258 100.09 500.394 100.038C500.54 99.9754 501.063 100.916 501.732 102.056C502.401 103.196 502.976 104.106 502.85 104.2V104.189Z" fill="#EB996E"/>
<path d="M505.16 122.886C505.108 122.917 504.638 122.112 504.167 120.711C503.697 119.31 503.279 117.271 503.31 114.991C503.342 112.712 503.812 110.694 504.324 109.303C504.826 107.912 505.317 107.128 505.369 107.149C505.547 107.201 503.885 110.537 503.854 115.002C503.76 119.467 505.338 122.844 505.16 122.886Z" fill="#EB996E"/>
<path d="M533.299 195.338C533.194 195.349 533.09 194.23 532.546 192.525C532.285 191.668 531.867 190.695 531.313 189.65C530.738 188.625 530.016 187.548 529.128 186.523C528.229 185.509 527.247 184.651 526.306 183.951C525.344 183.271 524.435 182.727 523.62 182.351C521.999 181.588 520.902 181.347 520.933 181.243C520.933 181.201 521.215 181.243 521.717 181.347C522.219 181.441 522.93 181.661 523.776 181.995C524.623 182.33 525.595 182.853 526.598 183.533C527.591 184.233 528.605 185.112 529.536 186.157C530.455 187.213 531.187 188.343 531.752 189.409C532.295 190.497 532.692 191.521 532.912 192.41C533.142 193.299 533.267 194.031 533.288 194.533C533.319 195.045 533.33 195.328 533.288 195.328L533.299 195.338Z" fill="#EB996E"/>
<path d="M413.743 296.047C409.175 295.096 405.046 297.156 405.046 297.156C400.395 295.096 394.656 298.651 394.656 298.651C392.973 297.846 382.834 304.475 382.834 304.475L370.208 310.436L302.758 260.296L321.875 240.397L295.085 212.51L263.686 244.831C259.777 248.867 257.801 254.315 257.425 260.045C256.631 272.332 263.634 283.803 274.609 289.366L354.09 330.146C354.09 330.146 362.515 329.854 372.162 327.334C379.019 325.545 390.737 320.338 390.737 320.338C390.737 320.338 390.705 320.694 392.796 324.751C396.569 332.06 402.098 324.176 402.098 324.176C402.098 324.176 403.227 326.769 404.241 327.752C409.018 332.384 412.331 326.162 412.331 326.162C412.331 326.162 413.763 328.662 418.039 326.8C422.293 324.949 417.422 312.098 417.422 312.098C417.422 312.098 418.854 314.89 421.624 311.356C424.394 307.822 418.331 296.999 413.753 296.047H413.743Z" fill="#FFBE9D"/>
<path d="M404.199 297.805C404.199 297.805 404.482 297.616 405.077 297.47C405.663 297.313 406.582 297.271 407.638 297.543C408.694 297.815 409.875 298.401 411.014 299.269C411.589 299.708 412.154 300.178 412.697 300.774C413.23 301.37 413.648 302.081 414.014 302.813C415.467 305.741 416.481 308.523 417.098 310.562C417.411 311.586 417.62 312.423 417.756 312.998C417.882 313.584 417.934 313.908 417.903 313.918C417.819 313.939 417.443 312.674 416.742 310.677C416.032 308.68 414.965 305.95 413.533 303.054C413.178 302.343 412.781 301.674 412.3 301.119C411.809 300.576 411.255 300.084 410.711 299.666C409.624 298.809 408.516 298.223 407.534 297.909C405.516 297.282 404.22 297.941 404.199 297.794V297.805Z" fill="#EB996E"/>
<path d="M412.321 326.161C412.321 326.161 412.081 325.764 411.736 325C411.338 324.143 410.847 323.066 410.262 321.801C409.018 319.092 407.199 315.401 405.464 311.177C404.617 309.064 403.844 307.046 402.715 305.467C401.618 303.868 400.165 302.832 398.837 302.226C397.51 301.609 396.287 301.525 395.492 301.63C394.688 301.734 394.269 301.954 394.238 301.902C394.238 301.881 394.332 301.829 394.531 301.724C394.729 301.619 395.043 301.504 395.461 301.421C396.287 301.243 397.583 301.285 398.994 301.87C400.395 302.445 401.963 303.512 403.133 305.164C404.325 306.795 405.13 308.866 405.976 310.968C407.701 315.161 409.467 318.883 410.628 321.644C411.213 323.014 411.662 324.143 411.945 324.927C412.237 325.711 412.373 326.151 412.331 326.171L412.321 326.161Z" fill="#EB996E"/>
<path d="M381.361 310.027C381.361 310.027 381.726 309.777 382.437 309.431C383.252 309.034 384.256 308.553 385.448 307.978C386.096 307.675 386.775 307.34 387.559 307.006C388.364 306.681 389.294 306.525 390.266 306.608C391.238 306.702 392.242 307.047 393.099 307.696C393.956 308.354 394.593 309.243 395.179 310.174C395.754 311.104 396.203 312.077 396.642 312.987C397.092 313.896 397.552 314.754 398.001 315.569C398.91 317.19 399.767 318.654 400.405 319.919C401.043 321.185 401.482 322.251 401.743 323.004C402.004 323.757 402.109 324.175 402.077 324.196C401.983 324.228 401.419 322.565 400.06 320.108C399.391 318.874 398.503 317.441 397.562 315.82C397.092 315.005 396.621 314.147 396.161 313.227C395.701 312.307 395.262 311.366 394.708 310.467C394.154 309.567 393.527 308.72 392.775 308.135C392.012 307.549 391.092 307.225 390.214 307.121C389.325 307.026 388.458 307.152 387.716 307.434C386.963 307.737 386.252 308.062 385.604 308.334C384.381 308.846 383.357 309.275 382.521 309.63C381.789 309.923 381.371 310.069 381.361 310.038V310.027Z" fill="#EB996E"/>
<path d="M382.824 304.476C382.824 304.476 382.51 304.716 381.904 305.061C381.298 305.406 380.409 305.887 379.301 306.473C377.096 307.644 374.023 309.223 370.615 310.938C367.208 312.653 364.114 314.179 361.856 315.267C360.727 315.811 359.807 316.239 359.17 316.522C358.532 316.804 358.166 316.95 358.156 316.908C358.135 316.877 358.469 316.668 359.076 316.323C359.682 315.978 360.57 315.497 361.678 314.911C363.884 313.74 366.957 312.161 370.364 310.446C373.772 308.731 376.866 307.205 379.124 306.117C380.253 305.574 381.162 305.145 381.81 304.862C382.448 304.58 382.813 304.434 382.824 304.465V304.476Z" fill="#EB996E"/>
<path d="M303.646 260.411C303.615 260.589 300.082 259.606 295.681 260.15C291.281 260.641 288.061 262.43 287.999 262.262C287.967 262.21 288.72 261.687 290.068 261.091C291.417 260.495 293.371 259.868 295.618 259.606C297.855 259.345 299.914 259.491 301.357 259.753C302.81 260.014 303.656 260.338 303.646 260.401V260.411Z" fill="#EB996E"/>
<path d="M452.605 79.2816C435.912 79.0516 419.199 80.8187 402.924 84.5308C399.151 85.3883 395.158 86.4967 392.607 89.414C389.911 92.4883 389.43 96.88 389.074 100.958C388.646 105.925 388.217 110.892 387.778 115.859C387.057 117.103 386.252 118.295 385.395 119.414C381.465 124.548 376.458 128.825 372.884 134.221C369.309 139.606 367.333 146.768 370.249 152.54C372.006 156.033 375.277 158.49 377.66 161.596C381.705 166.856 383.022 173.631 385.385 179.832C387.747 186.033 392.012 192.349 398.524 193.593C401.628 194.189 404.858 193.53 407.983 193.99C412.655 194.67 416.586 197.734 420.307 200.651C424.028 203.569 428.052 206.549 432.745 207.009C437.449 207.479 442.832 204.29 442.926 199.564C439.477 201.571 434.898 201.435 431.564 199.24C428.825 197.441 427.059 194.513 424.707 192.223C418.937 186.618 409.624 184.841 405.61 177.866C402.433 172.345 403.698 165.444 405.14 159.243C406.394 153.868 407.659 148.034 406.112 142.868C406.227 142.042 406.3 141.195 406.3 140.359C406.342 134.858 404.157 128.961 406.718 124.099C410.105 117.657 419.868 116.852 423.286 110.432C425.272 106.699 424.571 101.931 426.745 98.3126C428.794 94.9038 432.871 93.3353 436.759 92.4883C440.637 91.6413 444.734 91.2544 448.173 89.2467C451.602 87.2495 454.152 82.9414 452.605 79.2816Z" fill="#263238"/>
<path d="M465.274 191.469C465.274 191.469 465.232 191.563 465.117 191.731C464.981 191.919 464.814 192.159 464.605 192.463C464.134 193.09 463.35 193.947 462.2 194.899C461.03 195.819 459.441 196.771 457.434 197.461C455.438 198.151 452.992 198.569 450.316 198.287C447.651 198.067 444.766 196.98 442.309 195.004C439.822 193.09 437.606 190.549 434.794 188.531C433.383 187.538 431.773 186.743 430.007 186.523C428.23 186.272 426.422 186.785 424.676 187.485C422.92 188.175 421.153 189.064 419.136 189.399C417.119 189.754 415.007 189.263 413.189 188.343C411.339 187.433 409.718 186.21 408.161 185.007C406.604 183.794 405.077 182.571 403.75 181.169C402.412 179.789 401.262 178.21 400.614 176.443C399.924 174.676 399.893 172.752 400.259 171.006C400.604 169.249 401.241 167.649 401.837 166.102C402.443 164.554 402.966 163.048 403.426 161.563C404.325 158.594 404.952 155.76 405.36 153.156C406.175 147.938 406.175 143.63 406.039 140.682C405.976 139.207 405.882 138.057 405.799 137.283C405.767 136.917 405.736 136.624 405.725 136.405C405.715 136.206 405.705 136.102 405.725 136.102C405.746 136.102 405.757 136.196 405.788 136.394C405.82 136.624 405.861 136.907 405.924 137.273C406.039 138.046 406.165 139.186 406.269 140.671C406.468 143.63 406.53 147.949 405.767 153.219C405.381 155.844 404.774 158.698 403.886 161.699C403.426 163.195 402.914 164.732 402.308 166.279C401.722 167.827 401.105 169.416 400.771 171.11C400.437 172.794 400.468 174.592 401.126 176.265C401.743 177.949 402.851 179.455 404.158 180.803C405.464 182.163 406.969 183.376 408.516 184.578C410.063 185.781 411.663 186.973 413.45 187.851C415.216 188.74 417.192 189.19 419.084 188.866C420.976 188.562 422.732 187.694 424.509 186.994C426.275 186.283 428.198 185.739 430.09 186.011C431.972 186.251 433.665 187.109 435.108 188.134C437.982 190.225 440.177 192.766 442.612 194.669C445.006 196.624 447.776 197.68 450.379 197.921C452.981 198.224 455.385 197.837 457.361 197.189C459.347 196.541 460.925 195.631 462.096 194.753C464.427 192.933 465.221 191.438 465.305 191.501L465.274 191.469Z" fill="#263238"/>
<path d="M360.842 158.218C360.842 158.218 360.518 157.852 360.006 157.068C359.515 156.273 358.898 155.008 358.532 153.261C358.156 151.515 358.104 149.288 358.637 146.799C359.191 144.331 360.288 141.581 362.253 139.04C364.177 136.489 366.79 134.115 369.8 131.899C372.8 129.661 376.208 127.59 379.605 125.165C382.97 122.728 386.42 119.905 388.907 116.12C390.162 114.248 391.05 112.115 391.73 109.877C392.409 107.639 392.869 105.297 393.402 102.934C393.935 100.571 394.541 98.2284 395.513 96.0534C396.454 93.868 397.855 91.8812 399.621 90.3755C401.388 88.8697 403.447 87.8032 405.548 87.113C407.649 86.402 409.802 86.036 411.903 85.8582C416.115 85.4922 420.108 85.9628 423.819 86.2347C427.529 86.5379 430.989 86.7052 434.125 86.3706C437.261 86.0674 439.999 85.1263 442.205 83.9656C444.4 82.7735 446.062 81.3514 447.159 79.9712C448.257 78.6014 448.853 77.3466 449.156 76.4682C449.448 75.5899 449.563 75.1089 449.595 75.1193C449.595 75.1193 449.532 75.6108 449.26 76.51C448.978 77.3988 448.414 78.6955 447.316 80.1071C446.239 81.5292 444.557 83.0036 442.341 84.2375C440.114 85.44 437.344 86.4229 434.156 86.7575C430.989 87.1235 427.488 86.9771 423.777 86.6948C420.066 86.4333 416.094 85.9942 411.945 86.3706C409.875 86.5588 407.764 86.9248 405.715 87.6254C403.656 88.3051 401.67 89.3403 399.966 90.8042C398.262 92.2577 396.924 94.1712 396.005 96.3044C395.064 98.427 394.458 100.738 393.925 103.091C393.381 105.443 392.921 107.796 392.242 110.065C391.562 112.334 390.632 114.53 389.346 116.444C386.796 120.313 383.284 123.157 379.887 125.604C376.458 128.03 373.051 130.09 370.061 132.296C367.062 134.471 364.469 136.803 362.557 139.302C360.612 141.78 359.504 144.467 358.93 146.893C358.386 149.33 358.396 151.526 358.741 153.251C359.431 156.733 360.978 158.207 360.853 158.249L360.842 158.218Z" fill="#455A64"/>
<path d="M363.905 163.709C363.905 163.709 362.609 162.768 360.696 160.624C359.755 159.547 358.647 158.136 357.905 156.191C357.55 155.229 357.309 154.11 357.424 152.918C357.529 151.736 358.02 150.523 358.835 149.488C360.529 147.418 363.33 146.299 366.267 145.682C367.751 145.368 369.288 145.128 370.824 144.751C372.361 144.375 373.929 143.842 375.277 142.9C376.615 141.938 377.713 140.6 378.518 139.063C379.343 137.526 379.918 135.811 380.524 134.075C381.131 132.339 381.737 130.541 382.657 128.836C383.545 127.121 384.873 125.553 386.576 124.497C388.28 123.441 390.172 122.855 392.022 122.374C393.872 121.893 395.701 121.506 397.426 120.921C400.917 119.823 403.656 117.428 405.725 114.804C407.826 112.179 409.363 109.345 410.879 106.742C412.384 104.138 413.878 101.733 415.572 99.7775C417.234 97.8012 419.115 96.3372 420.934 95.3961C422.763 94.4446 424.509 94.0159 425.941 93.8799C427.383 93.7649 428.512 93.9427 429.233 94.1518C429.965 94.3505 430.32 94.5282 430.32 94.5282C430.32 94.5596 429.934 94.4132 429.212 94.2564C428.491 94.0891 427.373 93.9531 425.962 94.0891C424.55 94.2459 422.857 94.706 421.08 95.6576C419.303 96.6091 417.485 98.0626 415.864 100.018C414.223 101.952 412.75 104.347 411.265 106.961C409.771 109.565 408.245 112.43 406.112 115.107C405.056 116.445 403.844 117.731 402.422 118.84C401.011 119.959 399.36 120.837 397.583 121.423C395.816 122.029 393.977 122.416 392.148 122.897C390.318 123.378 388.479 123.953 386.859 124.957C385.239 125.961 383.984 127.435 383.117 129.098C382.228 130.75 381.622 132.517 381.016 134.253C380.409 135.989 379.824 137.724 378.967 139.314C378.131 140.903 376.981 142.315 375.549 143.329C374.117 144.323 372.486 144.856 370.919 145.232C369.351 145.609 367.804 145.839 366.34 146.142C363.445 146.728 360.727 147.805 359.118 149.749C358.334 150.712 357.863 151.851 357.748 152.97C357.623 154.089 357.832 155.166 358.166 156.097C358.856 157.979 359.933 159.401 360.832 160.488C361.752 161.576 362.536 162.36 363.069 162.893C363.32 163.134 363.518 163.333 363.685 163.489C363.821 163.625 363.894 163.699 363.884 163.709H363.905Z" fill="#455A64"/>
<path d="M492.575 96.1582C492.575 96.1582 492.408 96.4719 492.032 96.9634C491.656 97.4653 491.091 98.1659 490.38 99.0233C488.959 100.738 486.91 103.039 484.506 105.454C483.315 106.615 482.196 107.943 480.66 108.424C479.917 108.654 479.123 108.664 478.454 108.403C477.775 108.141 477.315 107.619 477.033 107.106C476.468 106.05 476.562 105.057 476.635 104.45C476.729 103.823 476.855 103.499 476.886 103.509C476.928 103.509 476.886 103.865 476.844 104.471C476.834 105.067 476.813 106.008 477.357 106.918C477.628 107.368 478.036 107.786 478.6 107.985C479.154 108.183 479.844 108.173 480.492 107.953C481.82 107.525 482.907 106.259 484.109 105.078C486.503 102.673 488.583 100.424 490.077 98.7828C491.572 97.1411 492.492 96.1164 492.555 96.1687L492.575 96.1582Z" fill="#EB996E"/>
<path d="M500.561 96.1699C500.561 96.1699 500.363 96.4836 499.934 96.9855C499.505 97.4875 498.868 98.1985 498.073 99.0664C497.237 99.9657 496.297 100.99 495.262 102.109C494.729 102.684 494.164 103.28 493.589 103.897C493.004 104.514 492.387 105.163 491.624 105.706C490.872 106.25 489.994 106.658 489.074 106.721C488.165 106.804 487.203 106.417 486.701 105.685C486.45 105.33 486.304 104.901 486.314 104.472C486.314 104.044 486.492 103.667 486.67 103.354C487.057 102.726 487.454 102.245 487.799 101.764C488.499 100.813 489.074 100.049 489.471 99.5265C489.879 99.0037 490.119 98.7318 490.15 98.7527C490.182 98.7736 490.004 99.0978 489.649 99.652C489.293 100.206 488.771 101.011 488.112 101.984C487.799 102.475 487.391 103.009 487.067 103.573C486.733 104.138 486.68 104.828 487.109 105.393C487.516 105.957 488.259 106.261 489.042 106.187C489.826 106.135 490.61 105.769 491.311 105.267C492.011 104.765 492.617 104.138 493.203 103.531C493.788 102.925 494.352 102.339 494.896 101.775C495.962 100.687 496.934 99.6938 497.791 98.8154C498.617 97.9789 499.296 97.3097 499.777 96.8496C500.258 96.3895 500.53 96.1595 500.561 96.1804V96.1699Z" fill="#EB996E"/>
<path d="M479.52 77.0766L487.924 61.925C484.088 55.8184 481.83 48.6138 481.757 40.8759C481.548 18.6243 499.401 0.408906 521.654 0.189318C543.897 -0.0198138 562.106 17.84 562.325 40.1021C562.534 62.3537 544.681 80.5691 522.428 80.7887C513.136 80.8828 504.565 77.8086 497.697 72.5907V72.6116L479.531 77.0766H479.52Z" fill="white"/>
<path d="M479.52 77.0763C480.461 76.8358 486.147 75.3928 497.666 72.4754L497.593 72.695V72.6741L496.945 71.8584L497.77 72.4754C500.08 74.2112 502.84 75.9051 506.07 77.3063C509.3 78.6866 513 79.795 517.066 80.2865C519.094 80.5165 521.215 80.6524 523.39 80.527C524.477 80.4538 525.585 80.4119 526.693 80.3074C527.801 80.1296 528.919 79.9414 530.058 79.7532C534.563 78.8016 539.152 77.0345 543.427 74.3157C547.692 71.6075 551.632 67.9477 554.779 63.4723C557.914 59.0073 560.266 53.7267 561.343 48.0174C562.398 42.3081 562.242 36.2015 560.684 30.3144C559.116 24.4483 556.252 18.7181 551.998 14.0335L550.357 12.2559C549.814 11.6599 549.176 11.1684 548.591 10.6246C547.984 10.1123 547.43 9.52671 546.772 9.06662L544.849 7.65498C544.221 7.16352 543.542 6.76617 542.863 6.36882L540.835 5.16631C540.124 4.8317 539.413 4.49709 538.713 4.16248C538.002 3.83832 537.312 3.46188 536.57 3.23184C530.769 0.994129 524.602 0.168058 518.707 0.649061C512.812 1.11961 507.188 2.86586 502.37 5.6264C497.53 8.36602 493.464 12.0154 490.328 16.0725C487.182 20.1297 484.977 24.6051 483.618 29.0596C482.269 33.5246 481.924 37.9582 481.966 42.0572C482.248 50.3179 485.039 57.0937 488.029 61.8724L488.07 61.9351L488.029 61.9979C482.604 71.6075 479.97 76.2711 479.51 77.0867C479.949 76.2711 482.52 71.5657 487.799 61.8724V62.0083C484.768 57.2192 481.904 50.4015 481.59 42.0676C481.538 37.9268 481.862 33.4514 483.21 28.9341C484.569 24.4378 486.785 19.9101 489.952 15.7902C493.109 11.6703 497.227 7.97913 502.119 5.19768C506.99 2.38485 512.697 0.617691 518.655 0.136688C524.623 -0.354771 530.874 0.471299 536.758 2.74038C537.511 2.97042 538.211 3.35732 538.933 3.68147C539.643 4.01608 540.364 4.36115 541.086 4.70622L543.145 5.92964C543.835 6.33745 544.525 6.7348 545.162 7.23671L547.106 8.66927C547.775 9.12936 548.329 9.72538 548.946 10.2482C549.542 10.8024 550.19 11.2939 550.733 11.9004L552.395 13.6989C556.712 18.4566 559.618 24.2496 561.196 30.2098C562.764 36.1806 562.921 42.3709 561.844 48.1534C560.757 53.9463 558.364 59.2896 555.176 63.7964C551.988 68.3241 547.995 72.0153 543.667 74.7445C539.34 77.4841 534.689 79.2617 530.131 80.2133C528.982 80.4015 527.853 80.5792 526.734 80.757C525.606 80.8616 524.487 80.9034 523.39 80.9766C521.195 81.1021 519.052 80.9557 517.003 80.7152C512.895 80.2133 509.174 79.0735 505.923 77.6618C502.673 76.2293 499.903 74.504 497.593 72.7368L497.781 72.5486V72.5695L497.927 72.7368L497.729 72.7891C486.168 75.5392 480.451 76.8985 479.51 77.1286L479.52 77.0763Z" fill="#263238"/>
<path d="M510.867 33.5877L516.104 33.5354C516.104 33.5354 516.062 29.1332 520.63 29.0077C523.003 28.9449 524.247 30.4925 524.759 31.6741C525.355 33.0544 525.187 34.6333 524.424 35.9195C523.546 37.3939 521.613 38.7428 518.08 38.1572L518.195 49.9836L523.379 49.9313L523.316 43.0091C523.316 43.0091 530.57 41.0641 530.487 33.0439C530.414 25.3792 523.525 23.6644 520.578 23.6957C518.331 23.7166 510.669 24.3336 510.857 33.5877H510.867Z" fill="#003399"/>
<path d="M523.471 52.3753L518.214 52.4258L518.261 57.3402L523.518 57.2897L523.471 52.3753Z" fill="#003399"/>
</svg>
